<svg xmlns="http://www.w3.org/2000/svg"  viewBox="0 0 100 100" width="100px" height="100px"  fill="#228BE6" opacity="0.4"><path d="M 28.125 14.001953 C 27.049637 13.99698 25.968235 14.001112 24.878906 14.017578 A 2.0002 2.0002 0 0 0 24.865234 14.017578 C 22.709645 14.065338 20.659208 14.972197 19.171875 16.533203 C 17.684317 18.093746 16.877872 20.183923 16.933594 22.339844 C 17.190276 39.077281 15.326002 56.399642 16.263672 72.974609 A 2.0002 2.0002 0 0 0 16.265625 73.001953 C 16.574242 77.383286 20.119253 80.880938 24.503906 81.128906 C 42.87904 82.165128 60.096844 82.347066 75.640625 81.285156 A 2.0002 2.0002 0 0 0 75.65625 81.285156 C 80.137912 80.947461 83.574665 77.063891 83.365234 72.574219 A 2.0002 2.0002 0 0 0 83.363281 72.554688 C 82.742931 61.484549 83.039767 61.841058 83.425781 58.162109 C 83.811782 54.483299 84.240271 47.302869 83.837891 22.083984 C 83.809051 20.038995 82.926562 18.096384 81.40625 16.728516 C 79.88587 15.360593 77.86185 14.689564 75.826172 14.875 L 75.832031 14.873047 C 58.937121 16.362784 44.255442 14.076548 28.125 14.001953 z M 28.117188 18.003906 C 40.034321 18.067655 51.435148 19.393127 63.820312 19.376953 L 63.191406 20.005859 A 1.0001 1.0001 0 1 0 64.605469 21.419922 L 66.677734 19.349609 C 67.343136 19.33699 68.011743 19.320561 68.683594 19.298828 L 67.876953 20.105469 A 1.0001 1.0001 0 1 0 69.291016 21.519531 L 71.644531 19.167969 C 72.961113 19.097682 74.289239 19.011199 75.634766 18.898438 L 72.292969 22.240234 A 1.0001 1.0001 0 1 0 73.707031 23.654297 L 78.099609 19.261719 C 78.323609 19.384785 78.536889 19.528955 78.730469 19.703125 C 79.249635 20.170235 79.604585 20.780411 79.755859 21.449219 L 76.3125 24.892578 A 1.0001 1.0001 0 1 0 77.726562 26.306641 L 79.865234 24.167969 C 79.880613 25.216926 79.891894 26.183039 79.904297 27.166016 L 78.169922 28.548828 A 1.0001 1.0001 0 1 0 79.416016 30.113281 L 79.9375 29.697266 C 79.948121 30.683541 79.955309 31.58493 79.962891 32.501953 L 78.539062 33.636719 A 1.0001 1.0001 0 1 0 79.785156 35.201172 L 79.980469 35.046875 C 80.063462 49.799031 79.736392 54.988596 79.447266 57.744141 C 79.08553 61.191692 78.746442 61.632435 79.371094 72.779297 L 79.369141 72.759766 C 79.419928 73.848528 79.062802 74.845998 78.447266 75.634766 L 76.777344 72.603516 A 1.0001 1.0001 0 0 0 75.875 72.074219 A 1.0001 1.0001 0 0 0 75.025391 73.568359 L 76.857422 76.896484 C 76.39615 77.108191 75.894904 77.254275 75.355469 77.294922 C 74.884941 77.327044 74.397649 77.347124 73.923828 77.376953 L 71.392578 73.039062 A 1.0001 1.0001 0 0 0 70.478516 72.53125 A 1.0001 1.0001 0 0 0 69.666016 74.044922 L 71.683594 77.505859 C 62.655556 78.001357 53.06055 78.102169 42.994141 77.869141 L 43.892578 76.976562 A 1.0001 1.0001 0 0 0 43.171875 75.257812 A 1.0001 1.0001 0 0 0 42.482422 75.556641 L 40.228516 77.794922 C 38.759489 77.752601 37.280738 77.704054 35.792969 77.648438 L 37.705078 75.75 A 1.0001 1.0001 0 0 0 36.984375 74.03125 A 1.0001 1.0001 0 0 0 36.294922 74.330078 L 33.0625 77.542969 C 31.686863 77.484673 30.300714 77.418538 28.910156 77.349609 L 31.625 75.177734 A 1.0001 1.0001 0 0 0 30.992188 73.388672 A 1.0001 1.0001 0 0 0 30.375 73.615234 L 25.898438 77.195312 C 25.506982 77.17397 25.123036 77.158857 24.730469 77.136719 C 23.377461 77.060201 22.197925 76.420801 21.382812 75.458984 L 25.783203 73.476562 A 1.0001 1.0001 0 0 0 25.318359 71.560547 A 1.0001 1.0001 0 0 0 24.962891 71.652344 L 20.433594 73.691406 C 20.34561 73.379212 20.279541 73.056898 20.255859 72.720703 C 20.179674 71.369003 20.130092 70.006018 20.089844 68.638672 L 25.568359 67.548828 A 1.0001 1.0001 0 0 0 25.345703 65.566406 A 1.0001 1.0001 0 0 0 25.177734 65.587891 L 20.035156 66.609375 C 20.011706 65.299643 20.021936 63.974101 20.023438 62.652344 A 1.0001 1.0001 0 0 0 20.039062 62.650391 L 24.587891 61.884766 A 1.0001 1.0001 0 0 0 24.423828 59.896484 A 1.0001 1.0001 0 0 0 24.253906 59.912109 L 20.015625 60.626953 C 20.026935 59.411103 20.059828 58.183181 20.085938 56.958984 L 22.478516 56.822266 A 1.0002522 1.0002522 0 0 0 22.433594 54.822266 A 1.0001 1.0001 0 0 0 22.363281 54.826172 L 20.125 54.953125 C 20.152678 53.909657 20.186405 52.860839 20.220703 51.8125 L 22.302734 51.691406 A 1.0001 1.0001 0 0 0 22.257812 49.693359 A 1.0001 1.0001 0 0 0 22.1875 49.695312 L 20.287109 49.804688 C 20.610066 40.702679 21.075495 31.452044 20.933594 22.257812 A 2.0002 2.0002 0 0 0 20.931641 22.238281 C 20.903361 21.144202 21.311964 20.084426 22.066406 19.292969 C 22.820535 18.501167 23.858019 18.042311 24.951172 18.017578 C 26.011557 18.001636 27.06597 17.998283 28.117188 18.003906 z M 25.080078 25.394531 C 24.528078 25.394531 24.080078 25.842531 24.080078 26.394531 C 24.080078 26.946531 24.528078 27.394531 25.080078 27.394531 C 25.632078 27.394531 26.080078 26.946531 26.080078 26.394531 C 26.080078 25.842531 25.632078 25.394531 25.080078 25.394531 z M 33.273438 25.394531 C 32.721437 25.394531 32.273438 25.842531 32.273438 26.394531 C 32.273438 26.946531 32.721438 27.394531 33.273438 27.394531 C 33.825437 27.394531 34.273438 26.946531 34.273438 26.394531 C 34.273438 25.842531 33.825437 25.394531 33.273438 25.394531 z M 30.080078 29.798828 C 29.528078 29.798828 29.080078 30.246828 29.080078 30.798828 C 29.080078 31.350828 29.528078 31.798828 30.080078 31.798828 C 30.632078 31.798828 31.080078 31.350828 31.080078 30.798828 C 31.080078 30.246828 30.632078 29.798828 30.080078 29.798828 z M 41.345703 29.972656 A 2.0002 2.0002 0 0 0 39.386719 32.009766 L 39.552734 64.837891 A 2.0002 2.0002 0 1 0 43.552734 64.818359 L 43.386719 31.990234 A 2.0002 2.0002 0 0 0 41.345703 29.972656 z M 61.416016 41.341797 A 2.0002 2.0002 0 0 0 59.453125 43.376953 L 59.480469 50.892578 C 58.481144 50.850888 57.347665 50.821398 56.064453 51.056641 C 54.543512 51.335459 52.882407 51.909715 51.486328 53.134766 C 50.09025 54.359816 49.076065 56.261801 48.875 58.625 C 48.626952 61.541847 49.288072 63.8957 50.621094 65.523438 C 51.954116 67.151174 53.793571 67.931994 55.474609 68.279297 C 58.836687 68.973902 62.013672 68.134766 62.013672 68.134766 A 2.0002 2.0002 0 0 0 63.539062 66.183594 L 63.490234 53.375 A 2.0002 2.0002 0 0 0 63.488281 52.720703 L 63.453125 43.361328 A 2.0002 2.0002 0 0 0 61.416016 41.341797 z M 58.208984 54.847656 C 58.667288 54.833571 59.102386 54.847116 59.496094 54.867188 L 59.533203 64.46875 C 58.602769 64.55828 57.404602 64.593009 56.283203 64.361328 C 55.187742 64.135006 54.3034 63.704575 53.716797 62.988281 C 53.130194 62.271988 52.675376 61.149544 52.861328 58.962891 C 52.988763 57.46509 53.465907 56.717262 54.123047 56.140625 C 54.780187 55.563988 55.732722 55.185119 56.785156 54.992188 C 57.269172 54.903458 57.750681 54.861742 58.208984 54.847656 z"/></svg>