<svg xmlns="http://www.w3.org/2000/svg" x="0px" y="0px" width="100" height="100" viewBox="0 0 100 100" fill="#228BE6" opacity="0.4">
<path  d="M 28.125 16.001953 C 27.049637 15.99698 25.968235 16.001112 24.878906 16.017578 A 2.0002 2.0002 0 0 0 24.865234 16.017578 C 22.709645 16.065328 20.659208 16.972197 19.171875 18.533203 C 17.684317 20.093746 16.877872 22.183923 16.933594 24.339844 C 17.190276 41.077281 15.326002 58.399642 16.263672 74.974609 A 2.0002 2.0002 0 0 0 16.265625 75.001953 C 16.574242 79.383286 20.119253 82.880938 24.503906 83.128906 C 42.87904 84.165128 60.096844 84.347066 75.640625 83.285156 A 2.0002 2.0002 0 0 0 75.65625 83.285156 C 80.137912 82.947461 83.574665 79.063891 83.365234 74.574219 A 2.0002 2.0002 0 0 0 83.363281 74.554688 C 82.742931 63.484549 83.039767 63.841058 83.425781 60.162109 C 83.811782 56.483299 84.240271 49.302869 83.837891 24.083984 C 83.809051 22.038995 82.926562 20.096384 81.40625 18.728516 C 79.88587 17.360593 77.86185 16.689564 75.826172 16.875 L 75.832031 16.873047 C 58.937121 18.362784 44.255442 16.076548 28.125 16.001953 z M 28.117188 20.003906 C 43.718467 20.087362 58.429818 22.340297 75.634766 20.898438 L 72.292969 24.240234 A 1.0001 1.0001 0 1 0 73.707031 25.654297 L 78.099609 21.261719 C 78.323609 21.384785 78.536889 21.528955 78.730469 21.703125 C 79.249635 22.170235 79.604585 22.780411 79.755859 23.449219 L 76.3125 26.892578 A 1.0001 1.0001 0 1 0 77.726562 28.306641 L 79.865234 26.167969 C 79.880613 27.216926 79.891894 28.183039 79.904297 29.166016 L 78.169922 30.548828 A 1.0001 1.0001 0 1 0 79.416016 32.113281 L 79.9375 31.697266 C 79.948121 32.683541 79.955309 33.58493 79.962891 34.501953 L 78.539062 35.636719 A 1.0001 1.0001 0 1 0 79.785156 37.201172 L 79.980469 37.046875 C 80.063462 51.799031 79.736392 56.988596 79.447266 59.744141 C 79.08553 63.191692 78.746442 63.632435 79.371094 74.779297 L 79.369141 74.759766 C 79.419928 75.848528 79.062802 76.845998 78.447266 77.634766 L 76.777344 74.603516 A 1.0001 1.0001 0 0 0 75.875 74.074219 A 1.0001 1.0001 0 0 0 75.025391 75.568359 L 76.857422 78.896484 C 76.39615 79.108191 75.894904 79.254275 75.355469 79.294922 C 74.884941 79.327044 74.397649 79.347124 73.923828 79.376953 L 71.392578 75.039062 A 1.0001 1.0001 0 0 0 70.478516 74.53125 A 1.0001 1.0001 0 0 0 69.666016 76.044922 L 71.683594 79.505859 C 62.655556 80.001357 53.06055 80.102169 42.994141 79.869141 L 43.892578 78.976562 A 1.0001 1.0001 0 0 0 43.171875 77.257812 A 1.0001 1.0001 0 0 0 42.482422 77.556641 L 40.228516 79.794922 C 38.759489 79.752601 37.280738 79.704054 35.792969 79.648438 L 37.705078 77.75 A 1.0001 1.0001 0 0 0 36.984375 76.03125 A 1.0001 1.0001 0 0 0 36.294922 76.330078 L 33.0625 79.542969 C 31.686863 79.484673 30.300714 79.418538 28.910156 79.349609 L 31.625 77.177734 A 1.0001 1.0001 0 0 0 30.992188 75.388672 A 1.0001 1.0001 0 0 0 30.375 75.615234 L 25.898438 79.195312 C 25.506982 79.17397 25.123036 79.158857 24.730469 79.136719 C 23.377461 79.060201 22.197925 78.420801 21.382812 77.458984 L 25.783203 75.476562 A 1.0001 1.0001 0 0 0 25.318359 73.560547 A 1.0001 1.0001 0 0 0 24.962891 73.652344 L 20.433594 75.691406 C 20.34561 75.379212 20.279541 75.056898 20.255859 74.720703 C 20.179674 73.369003 20.130092 72.006018 20.089844 70.638672 L 25.568359 69.548828 A 1.0001 1.0001 0 0 0 25.345703 67.566406 A 1.0001 1.0001 0 0 0 25.177734 67.587891 L 20.035156 68.609375 C 20.011706 67.299643 20.021936 65.974101 20.023438 64.652344 A 1.0002025 1.0002025 0 0 0 20.039062 64.650391 L 24.587891 63.884766 A 1.0001 1.0001 0 0 0 24.423828 61.896484 A 1.0001 1.0001 0 0 0 24.255859 61.912109 L 20.015625 62.625 C 20.026938 61.409801 20.059843 60.182522 20.085938 58.958984 L 22.478516 58.822266 A 1.0002522 1.0002522 0 0 0 22.433594 56.822266 A 1.0001 1.0001 0 0 0 22.363281 56.824219 L 20.125 56.953125 C 20.152678 55.909657 20.186405 54.860839 20.220703 53.8125 L 22.302734 53.691406 A 1.0001 1.0001 0 0 0 22.257812 51.693359 A 1.0001 1.0001 0 0 0 22.1875 51.695312 L 20.287109 51.804688 C 20.610066 42.702679 21.075495 33.452044 20.933594 24.257812 A 2.0002 2.0002 0 0 0 20.931641 24.238281 C 20.903361 23.144202 21.311964 22.084426 22.066406 21.292969 C 22.820535 20.501167 23.858019 20.042311 24.951172 20.017578 C 26.011557 20.001636 27.06597 19.998283 28.117188 20.003906 z M 24.601562 27.574219 C 24.049563 27.574219 23.601562 28.022219 23.601562 28.574219 C 23.601562 29.126219 24.049563 29.574219 24.601562 29.574219 C 25.153562 29.574219 25.601562 29.126219 25.601562 28.574219 C 25.601562 28.022219 25.153562 27.574219 24.601562 27.574219 z M 32.792969 27.574219 C 32.240969 27.574219 31.792969 28.022219 31.792969 28.574219 C 31.792969 29.126219 32.240969 29.574219 32.792969 29.574219 C 33.344969 29.574219 33.792969 29.126219 33.792969 28.574219 C 33.792969 28.022219 33.344969 27.574219 32.792969 27.574219 z M 29.601562 31.978516 C 29.049563 31.978516 28.601562 32.426516 28.601562 32.978516 C 28.601562 33.530516 29.049563 33.978516 29.601562 33.978516 C 30.153562 33.978516 30.601562 33.530516 30.601562 32.978516 C 30.601562 32.426516 30.153562 31.978516 29.601562 31.978516 z M 39.703125 36.335938 C 39.500529 36.338922 39.425478 36.34492 39.384766 36.347656 L 29.414062 36.345703 A 1.0001 1.0001 0 0 0 28.414062 37.287109 C 27.930702 45.387421 28.168384 52.957872 28.666016 62.302734 A 1.0001 1.0001 0 0 0 29.660156 63.248047 L 42.330078 63.308594 C 42.345458 63.308895 44.38202 63.346304 46.451172 62.291016 C 48.528144 61.231741 50.654378 58.89057 50.638672 54.738281 C 50.628412 52.054876 49.217549 50.299687 47.865234 49.361328 C 47.322319 48.984604 47.23261 49.066495 46.775391 48.882812 C 47.855975 47.912613 49.112284 46.402652 49 43.740234 C 48.835339 39.835103 46.254922 37.797023 43.908203 36.986328 C 42.148164 36.378307 40.445105 36.325008 39.703125 36.335938 z M 58.869141 36.458984 A 1.0001 1.0001 0 0 0 58.957031 38.457031 L 67.878906 38.505859 A 1.0001 1.0001 0 1 0 67.890625 36.505859 L 58.96875 36.458984 A 1.0001 1.0001 0 0 0 58.869141 36.458984 z M 39.783203 38.335938 C 40.409959 38.333134 41.840774 38.388099 43.255859 38.876953 C 45.14264 39.528758 46.868661 40.70935 47 43.824219 C 47.123106 46.743238 44.464844 48.285156 44.464844 48.285156 A 1.0001 1.0001 0 0 0 44.777344 50.134766 C 44.777344 50.134766 45.744424 50.323765 46.724609 51.003906 C 47.704795 51.684048 48.630931 52.721499 48.638672 54.746094 C 48.651962 58.260805 47.125247 59.70279 45.542969 60.509766 C 43.960691 61.316741 42.347656 61.308594 42.347656 61.308594 A 1.0001 1.0001 0 0 0 42.337891 61.308594 L 30.626953 61.251953 C 30.186786 52.761327 30.003243 45.692203 30.392578 38.345703 L 39.384766 38.347656 A 1.0001 1.0001 0 0 0 39.455078 38.34375 C 39.455078 38.34375 39.574285 38.336872 39.783203 38.335938 z M 63.005859 40.978516 C 60.94499 41.000425 58.605693 41.666483 56.675781 43.273438 C 54.469579 45.110447 52.898195 48.199867 53.041016 52.628906 C 53.101506 54.500232 53.642532 57.033484 55.267578 59.230469 C 56.892624 61.427454 59.653013 63.209169 63.783203 63.429688 C 67.76622 63.642628 70.346297 61.850673 71.773438 60.025391 C 73.200577 58.200108 73.601562 56.298828 73.601562 56.298828 A 1.0001 1.0001 0 0 0 72.603516 55.091797 L 66.964844 55.205078 A 1.0001 1.0001 0 0 0 66.388672 55.400391 C 66.388672 55.400391 65.20577 56.230779 63.960938 56.394531 C 63.338521 56.476411 62.756814 56.409891 62.203125 56.058594 C 61.875796 55.850915 61.543908 55.462688 61.224609 54.947266 L 72.927734 54.826172 A 1.0001 1.0001 0 0 0 73.912109 53.943359 C 73.912109 53.943359 74.272803 51.003067 73.207031 47.900391 C 72.141395 44.798109 69.429505 41.449397 63.871094 41.007812 L 63.869141 41.007812 C 63.588056 40.985521 63.300269 40.975386 63.005859 40.978516 z M 38.863281 41.804688 C 37.421098 41.748357 36.068359 42.009766 36.068359 42.009766 A 1.0001 1.0001 0 0 0 35.251953 43.033203 L 35.386719 46.335938 A 1.0001 1.0001 0 0 0 36.289062 47.291016 C 36.289062 47.291016 37.670716 47.436188 39.113281 47.236328 C 39.834564 47.136398 40.588961 46.964888 41.263672 46.541016 C 41.938383 46.117143 42.522216 45.274396 42.476562 44.310547 C 42.432032 43.360383 41.75257 42.599565 41.046875 42.261719 C 40.34118 41.923872 39.584373 41.832853 38.863281 41.804688 z M 63.03125 42.978516 C 63.264247 42.975233 63.492065 42.9826 63.710938 43 A 1.0001 1.0001 0 0 0 63.712891 43 C 68.569049 43.385099 70.420725 45.947004 71.314453 48.548828 C 71.96488 50.442351 71.975005 51.95791 71.941406 52.835938 L 59.636719 52.962891 A 1.0001 1.0001 0 0 0 58.699219 54.28125 C 59.268474 55.968686 60.114424 57.103155 61.130859 57.748047 C 62.147295 58.392939 63.269573 58.502327 64.222656 58.376953 C 65.822236 58.166536 66.899564 57.456268 67.269531 57.197266 L 71.160156 57.119141 C 70.93564 57.622734 70.672363 58.187828 70.199219 58.792969 C 69.070609 60.236436 67.256655 61.613653 63.888672 61.433594 C 60.264815 61.240117 58.181454 59.80728 56.875 58.041016 C 55.568546 56.274751 55.090526 54.096127 55.041016 52.564453 C 54.913837 48.620492 56.21878 46.256287 57.955078 44.810547 C 59.474339 43.545524 61.40027 43.001497 63.03125 42.978516 z M 38.785156 43.802734 C 39.35694 43.825064 39.899195 43.9283 40.183594 44.064453 C 40.467992 44.200607 40.468542 44.191461 40.478516 44.404297 A 1.0001 1.0001 0 0 0 40.478516 44.40625 C 40.490866 44.666901 40.468386 44.67856 40.199219 44.847656 C 39.930055 45.016753 39.404108 45.17546 38.837891 45.253906 C 38.119903 45.353376 37.801479 45.302523 37.345703 45.283203 L 37.291016 43.914062 C 37.742096 43.853612 38.05732 43.774305 38.785156 43.802734 z M 63.167969 45.478516 C 61.32802 45.483516 60.056161 46.569026 59.367188 47.554688 C 58.678213 48.540348 58.435547 49.527344 58.435547 49.527344 A 1.0001 1.0001 0 0 0 59.414062 50.771484 L 67.65625 50.697266 A 1.0001 1.0001 0 0 0 68.574219 49.324219 C 68.574219 49.324219 67.023678 45.467596 63.167969 45.478516 z M 63.171875 47.478516 C 64.380968 47.475116 65.235403 48.086187 65.810547 48.712891 L 60.978516 48.757812 C 60.997286 48.729503 60.986019 48.729542 61.005859 48.701172 C 61.466386 48.042333 62.077824 47.481499 63.171875 47.478516 z M 38.351562 51.195312 C 37.181091 51.233878 36.277344 51.410156 36.277344 51.410156 A 1.0001 1.0001 0 0 0 35.462891 52.439453 L 35.671875 56.914062 A 1.0001 1.0001 0 0 0 36.566406 57.863281 C 36.566406 57.863281 38.170056 58.03984 39.841797 57.78125 C 40.677667 57.651954 41.553502 57.426248 42.310547 56.908203 C 43.067592 56.390158 43.672041 55.448801 43.640625 54.345703 L 43.642578 54.347656 C 43.611388 53.240171 42.934378 52.334277 42.134766 51.878906 C 41.335153 51.423536 40.439018 51.273033 39.587891 51.214844 C 39.162327 51.185749 38.74172 51.182457 38.351562 51.195312 z M 38.820312 53.189453 C 39.007007 53.187186 39.214353 53.192794 39.451172 53.208984 C 40.134044 53.255674 40.777144 53.406011 41.144531 53.615234 C 41.511919 53.824458 41.629765 53.947329 41.642578 54.402344 A 1.0001 1.0001 0 0 0 41.642578 54.404297 C 41.655658 54.863699 41.535814 55.015452 41.181641 55.257812 C 40.827467 55.500174 40.205114 55.701358 39.537109 55.804688 C 38.612113 55.947769 38.133213 55.878843 37.625 55.851562 L 37.505859 53.324219 C 37.890651 53.271419 38.26023 53.196256 38.820312 53.189453 z"></path>
</svg>