<svg version="1.1" id="Layer_1" xmlns="http://www.w3.org/2000/svg" xmlns:xlink="http://www.w3.org/1999/xlink" x="0px" y="0px"
	 width="250" viewBox="0 0 250 1080" enable-background="new 0 0 1024 704" xml:space="preserve">
<path fill="#000000" opacity="1.000000" stroke="none" 
	d="
M583.816589,436.189362 
	C593.040588,446.179382 596.205261,458.516541 598.922424,470.875427 
	C602.567200,487.453888 606.067566,504.042908 611.257935,520.236450 
	C614.238525,529.535767 610.663208,537.097778 603.457764,542.717590 
	C599.012817,546.184387 597.876404,549.607971 598.850708,555.115295 
	C602.029968,573.085815 601.881348,591.297546 600.951233,609.437317 
	C600.570312,616.866089 598.835876,624.287781 597.088135,631.561523 
	C595.997803,636.098694 592.437012,639.192139 588.211670,641.190735 
	C578.399048,645.831909 567.751953,647.056580 557.168030,647.996765 
	C549.742188,648.656433 542.210449,648.124084 535.394897,648.124084 
	C533.497864,650.360107 535.003845,651.418701 535.176392,652.616455 
	C535.963196,658.077209 533.396118,661.306946 527.918823,661.340454 
	C504.750214,661.482056 481.696136,659.628662 458.628540,657.672974 
	C444.521057,656.476868 430.479523,654.786560 416.409515,653.308228 
	C414.761536,653.135132 413.113647,652.875916 411.495453,652.521179 
	C406.209106,651.362183 405.860352,650.722595 408.751740,646.221985 
	C410.168762,644.016357 409.380951,642.076721 408.827515,640.021606 
	C401.582489,613.118225 391.606293,587.162781 381.461243,561.266846 
	C376.111969,547.612488 370.110596,534.250305 363.838898,520.992920 
	C361.652618,516.371521 358.928375,514.334900 353.661621,513.992065 
	C317.259857,511.622681 280.856964,509.264954 244.357864,510.467834 
	C231.234848,510.900330 218.147339,512.390564 205.041016,513.362732 
	C201.477890,513.627014 200.104492,515.548157 200.291306,518.991089 
	C200.613205,524.923706 202.447708,530.394104 205.012283,535.692932 
	C219.017242,564.629150 232.707748,593.713196 245.869385,623.043823 
	C247.710098,627.145813 249.514008,631.274597 251.090210,635.482605 
	C253.222565,641.175415 257.045929,643.556763 263.229279,643.837769 
	C294.554291,645.261230 325.867462,644.535339 357.182709,643.804565 
	C370.362335,643.496948 383.504547,643.990540 396.639526,644.954346 
	C397.966858,645.051758 399.312042,645.133118 400.605011,645.420044 
	C402.726471,645.890625 406.001190,645.372131 405.658630,648.797974 
	C405.331757,652.066833 402.077271,652.201233 399.738281,652.008728 
	C357.310120,648.516541 314.804749,651.308716 272.350342,650.302795 
	C267.868591,650.196655 263.392426,649.645874 258.925201,649.188477 
	C253.354828,648.618164 249.564163,645.925293 247.102081,640.603271 
	C231.155807,606.134033 214.984543,571.768860 198.926331,537.351318 
	C196.007233,531.094788 194.190048,524.585754 194.655762,517.545532 
	C195.072830,511.240387 196.586365,509.341675 202.925568,508.575195 
	C242.210037,503.825073 281.584656,502.600281 321.076874,505.490631 
	C333.364380,506.389893 345.672363,507.109619 357.984009,507.527985 
	C362.751190,507.689972 365.189850,510.022919 367.083984,513.936584 
	C371.136902,522.310791 375.375183,530.595276 380.099731,540.040283 
	C381.755798,535.563660 383.083466,532.085266 384.325409,528.576477 
	C385.076019,526.455872 383.555176,525.092896 382.375305,523.755432 
	C375.597961,516.072632 375.015564,508.106323 379.772186,498.915894 
	C387.754822,483.492310 392.113678,466.577515 398.613434,450.529572 
	C409.064087,424.726898 418.057587,418.437378 447.896606,416.754272 
	C452.720734,416.482147 457.565369,416.629608 462.263702,415.315887 
	C464.587067,414.666199 466.648621,413.673523 466.796509,410.733276 
	C466.951660,407.647858 464.545868,407.472748 462.547058,406.786591 
	C449.629639,402.352325 441.351959,393.933136 439.636597,379.956757 
	C439.324219,377.411804 438.238800,375.411774 435.899689,374.464478 
	C421.462891,368.618103 417.811829,347.873932 422.300079,335.003204 
	C423.532745,331.468292 423.168335,328.935913 421.145111,325.808502 
	C415.087097,316.444122 414.294403,306.100128 417.213898,295.559967 
	C418.412109,291.234161 417.914459,289.213348 413.239014,287.534119 
	C396.842804,281.645447 390.305389,256.270172 402.849457,244.166962 
	C409.934967,237.330460 417.986084,230.556427 428.187897,227.798172 
	C446.037506,222.972214 460.038574,233.939972 459.435699,252.344147 
	C459.415314,252.966751 459.676514,253.598587 459.827789,254.328995 
	C485.390564,244.227921 509.958405,241.624146 531.245667,262.580505 
	C534.188171,261.471252 534.183472,259.194397 535.038696,257.487091 
	C542.120178,243.350800 561.489685,234.059326 577.281677,245.397079 
	C584.245667,250.396805 586.946716,257.531281 587.255493,265.686371 
	C587.402832,269.578796 587.909119,273.104553 589.793579,276.659821 
	C593.435303,283.530396 592.875916,290.424408 588.634949,297.033600 
	C581.160645,308.681763 567.530762,314.092468 554.382812,310.070862 
	C549.855225,308.686005 548.542236,310.439636 548.374695,314.344360 
	C547.983398,323.462463 546.214905,332.157562 541.101318,339.943176 
	C539.195190,342.845306 540.205383,346.149109 540.404724,349.234985 
	C540.957092,357.783020 540.047852,365.602478 531.873596,370.647644 
	C530.264099,371.641022 529.937988,373.299744 530.473206,375.067535 
	C530.950989,376.645721 531.915222,378.300507 530.173828,379.626160 
	C528.326904,381.032166 526.734680,379.750458 525.127625,378.887939 
	C524.707642,378.662537 524.186035,378.626495 523.521973,378.454498 
	C521.192810,380.773071 521.642212,383.918610 521.058472,386.752197 
	C519.697449,393.359467 520.103455,400.024841 520.354736,406.677246 
	C520.521545,411.093872 522.712280,413.948090 526.958618,415.697235 
	C537.991272,420.241730 549.623535,422.267395 561.233337,424.463135 
	C569.803772,426.084045 577.310364,429.799255 583.816589,436.189362 
M426.746246,550.791260 
	C428.764557,559.725403 432.561127,568.135254 434.373840,577.144226 
	C436.381897,587.123962 436.348724,597.223328 436.300201,607.439819 
	C437.598602,607.611389 438.570709,607.758972 439.547272,607.866028 
	C462.462402,610.379089 485.409180,609.302490 508.387512,609.243042 
	C524.682617,609.200806 538.522339,603.180847 552.809998,597.412842 
	C557.056763,595.698364 558.208740,592.331665 556.468018,588.040588 
	C555.123779,584.726868 554.543213,581.360046 554.650208,577.807373 
	C555.337219,554.997070 555.995056,532.185852 555.640198,509.360291 
	C555.632446,508.860748 555.627563,508.358765 555.665405,507.861298 
	C555.772949,506.449890 556.140442,505.154297 557.818298,504.980316 
	C559.685974,504.786682 560.637756,505.999451 560.858459,507.601715 
	C561.129639,509.570801 561.147827,511.583984 561.155334,513.578613 
	C561.197021,524.703186 561.154785,535.830566 562.834290,547.508057 
	C572.337524,545.703674 581.899292,545.669373 590.864563,542.349731 
	C593.782715,541.269165 596.566406,539.530823 599.046875,537.619873 
	C605.708984,532.487488 606.870361,528.118713 604.368896,520.140015 
	C602.677246,514.744202 601.001953,509.336365 599.559448,503.870605 
	C595.568726,488.750214 593.055603,473.255554 588.336121,458.325012 
	C583.312927,442.433594 572.816162,432.686951 555.933655,430.374084 
	C545.160950,428.898254 534.646118,426.337952 525.018066,421.136780 
	C521.887573,419.445648 520.256226,420.073090 517.840820,422.443634 
	C504.324890,435.708649 487.134094,436.376587 473.018951,423.998596 
	C469.288361,420.727112 466.207397,419.138550 461.222412,421.035431 
	C457.741272,422.360138 453.718750,422.203735 449.874207,422.377502 
	C442.882874,422.693359 435.950134,423.786377 429.234375,425.808197 
	C416.314972,429.697601 409.817902,439.695374 405.256287,451.456329 
	C398.274384,469.457336 392.537720,487.964905 383.778137,505.240875 
	C381.104614,510.513702 382.137817,514.819092 385.696777,519.002136 
	C392.088165,526.514282 400.399933,530.200317 410.033051,531.359192 
	C415.029419,531.960205 417.164307,530.652100 417.936707,525.579102 
	C419.801636,513.331238 424.637238,501.892761 427.438599,489.905487 
	C427.833832,488.214172 428.477997,486.490387 430.700226,487.001129 
	C432.994720,487.528442 433.358429,489.210175 432.690308,491.276733 
	C432.383514,492.225708 432.164856,493.203888 431.922577,494.172913 
	C427.337860,512.509460 420.757172,530.652527 426.746246,550.791260 
M526.434082,643.649841 
	C534.251770,643.328552 542.069702,643.013611 549.887085,642.684387 
	C559.728577,642.270020 569.455017,640.951050 578.946655,638.330505 
	C588.736511,635.627563 593.402649,629.637573 593.631897,619.478760 
	C594.011108,602.672363 594.912598,585.855225 593.592712,569.056213 
	C593.189758,563.927429 592.334229,558.828369 591.531860,553.739929 
	C591.234497,551.854370 590.504150,550.172424 587.871643,550.945374 
	C580.604492,553.079163 573.146851,553.594788 565.614685,553.329407 
	C563.368164,553.250244 562.145569,554.249207 562.174744,556.560486 
	C562.323975,568.378418 561.400269,580.223511 562.702698,592.007324 
	C563.309021,597.492859 561.753052,601.051880 556.648071,603.118835 
	C534.124695,612.238342 512.387512,623.227234 489.302887,631.044434 
	C482.706268,633.278259 476.305939,634.909180 469.331207,634.369019 
	C465.524384,634.074158 461.651764,634.082397 457.847687,634.408020 
	C448.575378,635.201721 439.762146,637.758362 430.974243,641.737610 
	C431.717407,642.222412 431.966583,642.524536 432.228882,642.536377 
	C458.814545,643.741150 485.360504,646.477356 512.025635,644.666565 
	C516.510254,644.362061 520.990479,643.993652 526.434082,643.649841 
M468.727478,359.609589 
	C468.279602,358.717010 467.905548,357.777039 467.368927,356.941437 
	C466.132355,355.015747 466.385223,350.909821 463.139771,351.835480 
	C459.927704,352.751587 461.395294,356.722748 460.875916,359.340698 
	C460.737213,360.039825 461.834259,360.957367 462.302277,361.808563 
	C463.803528,364.538849 461.887848,370.725739 459.902069,369.966492 
	C455.155212,368.151764 452.963837,372.104767 449.675873,373.541901 
	C444.975677,375.596313 444.650238,379.017822 446.219788,383.404907 
	C450.591003,395.622925 462.920868,402.563202 475.732574,399.946075 
	C483.481812,398.363098 490.428497,394.640320 497.760834,391.948303 
	C499.469299,391.321045 501.353363,390.220245 502.618835,392.413422 
	C503.898712,394.631470 501.979980,395.746582 500.541595,396.808563 
	C493.620941,401.918365 485.973450,405.411316 477.559082,407.330566 
	C472.234344,408.545044 470.619598,412.388947 473.331085,417.136078 
	C476.324554,422.376953 481.201202,425.194946 486.851990,426.622070 
	C495.896301,428.906250 503.322174,424.532990 510.856506,420.537323 
	C514.403198,418.656342 515.638123,415.827271 514.558594,412.257477 
	C511.894196,403.446808 513.151184,394.812653 515.247864,386.180176 
	C515.829956,383.783539 515.812439,381.586426 514.237488,379.553528 
	C512.907593,377.837006 512.378174,376.016418 513.750427,374.048676 
	C515.194519,371.977783 517.192749,371.004272 519.707886,371.009949 
	C521.178040,371.013275 522.464111,372.301392 524.229431,371.545502 
	C524.940002,368.250580 527.007812,365.715729 529.764099,363.717896 
	C531.606445,362.382477 532.919189,360.646698 533.329102,358.464233 
	C534.548706,351.970032 534.143921,345.514740 532.135559,339.228088 
	C531.333374,336.717010 529.775696,335.227600 526.253235,337.925018 
	C532.423401,339.359711 530.604187,342.834778 529.049255,346.104675 
	C527.460266,349.445984 527.146179,352.689667 528.614746,356.189667 
	C529.872864,359.188019 529.265930,362.083252 527.190186,364.610504 
	C526.537170,365.405579 525.703003,366.084473 524.611145,365.698608 
	C523.605286,365.343109 522.710510,364.335968 523.011475,363.416351 
	C524.692383,358.279297 520.374146,353.896088 521.865967,348.307373 
	C519.937317,349.815247 519.161865,351.922974 516.874695,351.148987 
	C514.559021,350.365326 514.245728,348.350067 513.863220,346.386597 
	C513.577332,344.919067 513.475891,343.412201 513.137146,341.959015 
	C512.345337,338.562103 512.744568,334.657227 508.552734,331.527283 
	C509.046173,335.437134 509.397095,338.471771 509.816681,341.496857 
	C511.306152,352.235870 502.973633,365.589630 492.775116,368.736969 
	C491.177551,369.230011 489.236206,369.880096 488.277100,368.069275 
	C487.127167,365.898132 489.223816,365.240417 490.692200,364.581512 
	C504.569427,358.354523 505.789429,345.064636 502.199799,333.237488 
	C500.765381,328.511322 498.716095,327.997284 494.087585,330.494995 
	C493.377197,330.878296 492.445129,331.509613 491.835358,331.319885 
	C484.880768,329.156311 478.715637,333.080383 471.976379,333.762909 
	C471.518951,335.635895 470.947144,337.547607 470.592834,339.498810 
	C468.561005,350.687775 473.694519,361.201874 483.791260,366.462677 
	C485.216553,367.205322 486.688049,367.806793 485.808868,369.715881 
	C485.032654,371.401337 483.416626,371.393799 481.913300,370.895996 
	C476.261749,369.024628 472.335815,365.039001 468.727478,359.609589 
M411.904205,537.465637 
	C403.886993,538.584595 397.142517,534.632629 389.535797,531.230835 
	C387.959106,541.296082 383.628693,550.091797 388.197845,560.280457 
	C393.766693,572.698181 397.840820,585.781677 402.701752,598.523804 
	C404.374115,602.907593 405.307007,607.629456 407.976562,611.902527 
	C410.168274,609.053528 410.749512,606.068054 411.302734,603.165771 
	C413.820831,589.955872 416.285461,576.734314 418.585510,563.484985 
	C419.810394,556.428894 420.450348,549.339661 418.820251,542.183594 
	C418.022827,538.682983 416.498383,536.756775 411.904205,537.465637 
M443.459229,615.259583 
	C435.301758,615.255920 427.142212,615.137451 418.987488,615.285339 
	C412.588745,615.401306 409.817322,619.252014 411.530945,625.288574 
	C412.575531,628.968384 413.663666,632.637390 414.822144,636.282715 
	C416.687988,642.153625 417.084595,641.895935 422.859497,639.384460 
	C437.613403,632.967896 452.237152,625.649353 469.227509,628.555969 
	C471.331299,628.915833 473.546112,628.773621 475.644958,628.027283 
	C487.982788,623.640381 500.482880,619.691528 512.507751,614.297852 
	C489.806854,615.419373 467.148651,617.150696 443.459229,615.259583 
M425.134460,567.569397 
	C424.868042,567.233276 424.724854,566.517151 424.115387,567.220093 
	C424.013763,567.337280 423.964722,567.521423 423.941315,567.681885 
	C422.123138,580.138611 420.298553,592.594360 418.510254,605.055420 
	C418.276031,606.687317 419.156189,607.655457 420.771210,607.603638 
	C424.166290,607.494690 427.655518,608.375000 431.029877,606.936890 
	C430.505249,593.655151 429.847687,580.600586 425.134460,567.569397 
M455.296204,332.207642 
	C457.437317,335.414673 458.752502,338.982117 459.926636,342.624115 
	C460.367920,343.993011 460.698151,345.821442 462.741241,345.434784 
	C464.639465,345.075531 464.626648,343.332397 464.629913,341.838318 
	C464.636505,338.824005 464.921722,335.826996 466.015900,333.032501 
	C467.224518,329.945740 466.597473,327.634308 464.018402,325.590668 
	C459.053894,321.656830 456.026062,316.371643 453.768250,310.552704 
	C453.143280,308.942047 452.968109,306.956177 450.112000,305.685608 
	C448.381134,315.229645 452.272369,323.287323 455.296204,332.207642 
M438.165558,362.011566 
	C437.614716,355.397583 436.138519,348.951752 434.718384,342.488190 
	C433.979156,339.123688 432.344788,336.778198 428.939667,335.874725 
	C424.904938,341.662109 424.936981,352.909576 429.166962,361.001007 
	C431.025879,364.556885 433.027893,368.235687 437.700714,368.631836 
	C439.046722,366.433777 438.575226,364.629425 438.165558,362.011566 
M448.778778,356.352997 
	C443.538635,360.026367 442.730164,363.371033 445.480652,370.178925 
	C447.825989,370.480133 449.021881,368.714783 450.325500,367.302216 
	C456.450470,360.665497 457.702026,346.544342 452.816376,338.781708 
	C450.508057,335.113983 446.999969,333.392731 442.711578,333.495605 
	C440.801971,333.541412 438.847168,334.300415 438.892334,336.573578 
	C438.940552,339.001129 440.692535,339.130341 442.828339,338.961304 
	C449.360199,338.444427 453.370056,341.697510 454.776245,348.166260 
	C455.648560,352.179291 454.135223,353.042877 450.637482,351.488892 
	C450.144165,352.939270 449.667633,354.340363 448.778778,356.352997 
M423.848480,648.703369 
	C456.359375,652.903137 489.084686,653.494873 521.773621,654.713562 
	C487.533020,652.003235 453.142914,651.515320 418.103455,647.039062 
	C420.111755,648.696899 421.611786,648.585449 423.848480,648.703369 
z"/>
<path fill="#000000" opacity="1.000000" stroke="none" 
	d="
M594.289246,181.780899 
	C590.385498,178.890457 586.687195,176.319061 583.192383,173.495895 
	C577.553223,168.940598 576.174805,163.739075 578.833740,157.057312 
	C580.184326,153.663345 581.705139,150.306824 583.487488,147.122787 
	C585.586487,143.373062 588.115601,139.975754 586.840698,135.162003 
	C586.293884,133.097290 587.706482,130.960968 589.078125,129.244949 
	C594.088867,122.976151 599.316650,116.941620 606.796509,113.417824 
	C608.758362,112.493576 610.879700,111.531502 611.412842,109.167656 
	C613.062866,101.851967 618.697388,98.661522 624.925903,96.435791 
	C633.540222,93.357483 642.290283,90.646034 651.036072,87.952614 
	C658.765320,85.572281 664.772949,89.216606 666.215393,97.802414 
	C667.948486,108.118172 669.221558,118.533195 670.172119,128.952835 
	C671.335876,141.709152 671.958984,154.514786 672.835632,167.595001 
	C676.625916,166.758408 679.600098,166.749893 681.659607,171.630569 
	C682.488220,173.594421 686.529358,175.333740 688.645996,177.825851 
	C694.195374,184.359726 695.840088,195.914276 692.007690,203.531631 
	C684.417480,218.618073 673.520447,230.805832 659.084351,239.553970 
	C654.775330,242.165176 653.177307,244.415649 654.589172,249.741013 
	C659.116577,266.818390 661.917542,284.309021 661.788147,301.973145 
	C661.580750,330.266022 657.492798,357.994598 646.418945,384.328125 
	C645.094238,387.478271 644.160095,390.542236 645.370544,393.955292 
	C646.763306,397.882629 645.803833,401.544830 643.618286,404.883698 
	C638.186768,413.181824 631.586426,420.404694 623.402222,426.074066 
	C621.569519,427.343628 619.349609,429.388763 617.397461,426.526093 
	C615.661560,423.980438 618.078125,422.718658 619.753601,421.383636 
	C625.661011,416.676758 630.426697,410.880493 635.148376,405.061768 
	C639.947876,399.147217 640.082397,395.117859 635.603943,388.860840 
	C630.073181,381.133484 623.938293,373.886780 617.464355,366.933960 
	C614.859131,364.136017 612.146729,361.437195 609.458313,358.717712 
	C606.674255,355.901520 604.320740,356.128601 601.510498,359.113739 
	C591.920410,369.300751 581.907410,379.073730 571.525818,388.461121 
	C570.662598,389.241669 569.856262,390.118011 568.889954,390.743744 
	C567.529236,391.624878 566.033936,391.798187 564.813354,390.462585 
	C563.430054,388.949005 563.721069,387.461945 565.095520,386.062286 
	C576.290100,374.662628 587.467407,363.246033 598.692688,351.876709 
	C599.489563,351.069580 600.574707,350.159607 601.611389,350.040222 
	C607.853333,349.321625 608.747681,344.775360 609.665894,339.790649 
	C613.284058,320.150604 616.653748,300.457916 616.550049,280.434296 
	C616.482056,267.300049 615.725769,254.146011 614.693420,241.046890 
	C613.719299,228.685638 616.165710,217.313171 621.995300,206.438477 
	C625.081604,200.681015 624.636169,199.964752 619.021545,196.599258 
	C610.881470,191.719955 602.731689,186.856918 594.289246,181.780899 
M615.233215,163.611359 
	C618.353027,167.588074 621.502319,171.533417 626.037720,174.520447 
	C626.845764,172.742798 627.450562,171.562241 627.928284,170.332321 
	C629.224121,166.996338 627.508728,165.608292 624.616455,166.533401 
	C620.239929,167.933289 617.677917,165.554108 614.788879,162.236008 
	C611.081482,155.688507 617.417786,151.952560 620.525452,145.880066 
	C617.113281,146.836990 615.291626,147.472504 613.417908,147.849762 
	C607.970581,148.946625 602.118286,144.449356 600.811340,138.254868 
	C599.598511,132.506226 602.308044,128.009018 607.676025,126.861282 
	C613.673462,125.578957 614.428528,122.852226 610.086121,117.463081 
	C603.873779,121.220566 599.348083,126.762207 594.772766,132.216003 
	C593.005188,134.322906 593.613159,136.781189 595.121155,138.698425 
	C601.589172,146.921677 607.464050,155.638092 615.233215,163.611359 
M660.996887,104.015945 
	C660.996887,104.015945 661.019775,104.060204 660.985229,103.239449 
	C660.223328,96.064026 658.507080,93.497520 654.241272,93.154388 
	C649.017639,92.734207 644.473755,95.759285 643.735840,100.996895 
	C642.578796,109.209496 641.782532,117.436310 642.860901,125.823044 
	C644.625183,139.543869 648.078674,152.911621 650.734802,166.442734 
	C651.181641,168.718735 650.732483,171.553009 653.306458,173.360962 
	C657.318115,171.390335 661.017090,166.307526 666.048035,170.944427 
	C668.780640,173.462997 671.005676,176.989838 669.605774,180.735306 
	C667.355530,186.755676 661.601379,184.554779 657.037292,184.940811 
	C655.941528,186.958557 655.455627,189.040787 655.345764,191.210266 
	C655.264465,192.814178 655.610657,194.192947 657.485718,194.642899 
	C660.141113,195.280060 669.107300,191.049088 669.251831,188.394241 
	C669.587769,182.224472 672.869995,177.939896 677.218140,173.677444 
	C671.620728,175.268387 669.401367,170.566284 667.069824,167.890915 
	C664.380493,164.804947 666.079590,159.687332 665.155396,154.604858 
	C662.823059,159.489883 660.140869,162.242645 655.343689,161.068329 
	C650.025757,159.766541 648.652039,155.399963 648.114380,150.797318 
	C647.686279,147.132019 649.537720,144.158813 652.882080,142.771820 
	C657.803467,140.730759 661.431763,143.305649 664.762817,147.373642 
	C664.308289,141.661255 663.891235,136.420547 663.468323,131.105957 
	C659.566345,136.718002 655.573364,138.277466 651.577393,135.805588 
	C647.058533,133.010223 644.782471,126.065086 647.183716,122.398636 
	C650.280518,117.670204 654.552734,117.610039 662.602478,122.287376 
	C663.228882,117.023346 661.477356,111.984581 661.675171,106.844658 
	C661.711548,105.898964 661.216614,104.932823 660.996887,104.015945 
M622.224182,248.514908 
	C622.428284,252.171463 622.702698,255.825699 622.824036,259.485016 
	C623.304260,273.965912 623.716736,288.428497 622.648315,302.926300 
	C621.601013,317.137268 617.659363,330.728729 614.757690,344.548340 
	C613.641846,349.862244 614.850403,354.567596 618.802246,358.251617 
	C625.897034,364.865662 632.271301,372.094208 638.161499,379.779755 
	C638.785156,380.593506 639.126953,382.051056 640.987915,381.560364 
	C644.503845,373.067566 646.944153,364.087219 649.182434,355.072266 
	C654.892578,332.074005 656.123535,308.729950 654.064026,285.175293 
	C652.887390,271.717834 650.505249,258.474976 646.816895,245.475372 
	C645.740662,241.682159 646.103516,238.537354 650.269409,236.854080 
	C663.329468,231.577057 672.092834,221.334290 680.399353,210.613083 
	C682.992554,207.266022 685.147644,201.910126 685.780945,198.285172 
	C681.700500,205.706024 676.506714,211.912964 669.942078,216.947418 
	C668.356262,218.163635 666.685791,219.909897 664.775818,217.811462 
	C662.978760,215.837173 664.988159,214.427826 666.162598,213.190445 
	C673.283997,205.687515 678.912720,196.991699 685.541321,189.098297 
	C686.440063,188.028076 687.193787,186.919617 685.481567,185.476883 
	C682.801697,186.047455 681.926270,188.554871 680.714355,190.588776 
	C677.336548,196.257904 673.049805,201.080933 667.621216,204.819077 
	C666.173706,205.815811 664.406738,206.968628 662.643860,205.247620 
	C660.875000,203.520767 662.922180,202.338638 663.365295,201.191223 
	C657.304443,200.730042 651.616028,201.347290 646.638794,205.664200 
	C645.194824,206.916611 641.947815,208.177505 639.829407,205.642685 
	C637.704346,203.099869 639.515503,200.991974 641.037415,198.971359 
	C642.640564,196.842789 644.281189,194.742401 645.884277,192.613815 
	C647.781616,190.094574 649.228271,187.396011 649.482605,183.681259 
	C643.983582,184.952454 640.819946,188.528488 638.028137,192.403610 
	C633.616150,198.527756 631.148376,205.684982 627.754761,212.351700 
	C623.682068,220.352219 620.357178,228.378296 621.342651,237.602325 
	C621.696289,240.912506 621.915649,244.237030 622.224182,248.514908 
M632.891541,160.634689 
	C635.210144,165.248123 637.487000,169.883270 639.870544,174.462860 
	C640.670410,175.999710 641.254578,178.147797 643.829590,177.150085 
	C645.253418,176.598404 646.703552,175.956177 646.715088,174.119003 
	C646.728760,171.930862 644.942505,171.691772 643.370605,171.067841 
	C635.145996,167.803284 633.776001,161.796814 639.746887,155.225418 
	C641.193054,153.633804 642.513245,152.195648 640.428528,150.218628 
	C632.492126,152.013290 628.773865,150.390640 627.062805,144.420731 
	C625.678040,139.589218 628.220093,133.950897 633.359070,131.720993 
	C636.963806,130.156799 637.693298,128.177826 635.940552,124.757286 
	C632.988525,124.798927 630.470032,126.638298 627.508362,125.766739 
	C622.161743,124.193336 619.538269,119.403503 620.857422,113.069183 
	C622.238831,106.436043 626.371948,103.201485 632.396667,104.038559 
	C637.796387,104.788788 638.262329,104.278427 636.798401,98.918930 
	C631.427673,98.889305 626.954651,101.463852 622.565735,104.134644 
	C618.254272,106.758263 616.841309,110.500702 617.702454,115.627724 
	C620.320312,131.214447 625.918213,145.754044 632.891541,160.634689 
M587.890930,150.522568 
	C585.981750,153.871277 585.110229,157.604523 583.870544,161.206299 
	C583.114746,163.402191 583.619934,165.209259 585.240906,166.605728 
	C590.865173,171.451126 596.653931,176.077118 603.733215,179.205460 
	C603.733215,176.693436 603.705627,174.561508 603.740784,172.430603 
	C603.777588,170.199921 605.776245,168.870529 606.940430,166.412674 
	C599.923340,172.096970 594.716919,172.582489 591.109741,168.305222 
	C586.710876,163.089203 588.136841,156.576584 595.198853,149.900009 
	C594.355713,148.119736 593.410828,146.447006 591.266418,146.000000 
	C589.495911,146.796188 589.027100,148.474686 587.890930,150.522568 
M634.654114,110.735115 
	C633.498779,109.675461 632.138306,109.088455 630.580933,109.362114 
	C626.698242,110.044403 625.790710,113.134361 625.507751,116.327240 
	C625.296265,118.713478 626.594421,120.534477 629.223267,120.651161 
	C633.925781,120.859871 637.171692,115.640404 634.654114,110.735115 
M634.292053,145.244827 
	C638.266418,146.590225 638.907715,144.075272 638.819214,141.125198 
	C638.755493,139.001831 638.377869,136.287872 635.475403,136.825562 
	C632.577148,137.362473 631.976501,140.003433 632.514709,142.692108 
	C632.664612,143.441132 633.297974,144.093414 634.292053,145.244827 
M659.847839,151.614548 
	C659.539612,149.509247 658.414673,148.104721 656.203979,148.477203 
	C654.264648,148.803955 653.613159,150.560226 653.729309,152.290878 
	C653.841248,153.958344 654.454346,155.856155 656.329285,156.145844 
	C659.002441,156.558868 659.561035,154.455429 659.847839,151.614548 
M659.511475,179.069931 
	C660.542236,180.732864 661.944824,181.215179 663.599487,180.102036 
	C664.703430,179.359390 664.682251,178.199127 664.165161,177.051682 
	C663.681213,175.977890 663.034302,174.886658 661.747131,174.964111 
	C659.662292,175.089539 659.171387,176.583282 659.511475,179.069931 
M652.278076,126.862175 
	C652.298950,128.566284 652.435059,130.278351 654.648254,130.417847 
	C655.726624,130.485809 656.397339,129.660233 656.652588,128.619598 
	C656.938171,127.455696 656.879211,126.306168 655.908447,125.473923 
	C654.479614,124.248909 653.262451,124.460327 652.278076,126.862175 
M621.902039,161.245560 
	C624.400024,161.624878 624.881226,160.367126 624.070862,158.367752 
	C622.871216,155.407669 620.966309,157.942032 619.436279,157.382416 
	C619.233276,159.415604 620.105042,160.312119 621.902039,161.245560 
M642.391846,165.574493 
	C645.403259,165.138306 645.423645,164.340164 642.481201,159.952682 
	C640.487549,161.503601 640.898132,163.262238 642.391846,165.574493 
M607.261230,134.186661 
	C607.390625,135.756149 606.918274,137.607239 609.105835,138.244690 
	C611.523499,134.811523 611.187378,133.914017 607.261230,134.186661 
z"/>
<path fill="#000000" opacity="1.000000" stroke="none" 
	d="
M831.302795,371.727478 
	C827.276428,368.107941 823.468445,364.972992 817.892334,365.287872 
	C813.425781,365.540100 810.600891,367.375549 808.862793,371.719452 
	C789.530884,420.031677 758.054260,458.855621 716.156006,489.370728 
	C710.256775,493.667175 703.654114,497.001984 697.347473,500.731995 
	C695.770752,501.664551 693.734863,502.281158 693.400635,504.277618 
	C691.321594,516.697815 681.645386,522.345581 672.128540,527.901733 
	C662.528442,533.506531 651.796143,536.111084 640.958313,538.128235 
	C638.535156,538.579102 635.498779,538.925476 634.937927,535.485168 
	C634.426575,532.348267 637.236755,531.836060 639.493896,531.277954 
	C646.932251,529.438782 654.341858,527.532349 661.536255,524.838867 
	C666.401855,523.017212 670.804077,520.407166 675.300903,517.847229 
	C684.215332,512.772339 687.085449,505.332977 685.621033,495.576874 
	C683.767212,483.226166 681.551025,470.962494 677.805786,459.022095 
	C677.408203,457.754761 676.934448,456.503143 676.391846,455.290863 
	C673.873840,449.664673 672.743591,449.185272 667.352356,451.994568 
	C653.870789,459.019531 639.953491,464.950134 625.252930,468.910828 
	C621.239990,469.992065 617.141846,470.765503 613.068298,471.610413 
	C611.182800,472.001465 609.100464,472.034363 608.610718,469.705109 
	C608.127808,467.408142 610.282776,467.228455 611.838501,466.767822 
	C630.392578,461.274170 648.598450,454.902130 665.580811,445.449493 
	C670.403503,442.765137 675.028625,441.134766 679.312378,446.524780 
	C680.992065,448.638336 682.849670,447.244720 684.575623,446.074371 
	C698.289429,436.774902 710.698730,425.988983 721.921448,413.794067 
	C745.423096,388.256897 762.280334,358.470032 777.685364,327.674805 
	C782.279236,318.491394 787.242859,309.247498 796.785156,303.862732 
	C799.081482,302.566864 798.311890,300.613739 798.079102,298.584625 
	C796.444031,284.334534 798.247925,270.866211 808.340759,259.786957 
	C819.258972,247.801773 832.694580,240.098785 848.946411,238.335495 
	C857.395264,237.418808 865.392151,240.238098 873.062256,243.667084 
	C901.514893,256.387054 917.297058,278.475616 921.353577,309.175079 
	C926.786377,350.289581 894.092712,379.082428 860.191162,381.761902 
	C849.528015,382.604706 839.904236,378.766052 831.302795,371.727478 
M783.122253,407.636261 
	C791.116577,395.122192 798.659790,382.337402 803.083618,368.073273 
	C804.823975,362.461639 807.515991,358.970154 813.693909,358.877594 
	C817.003601,358.828033 818.246216,357.368683 816.673096,354.076385 
	C813.429138,347.287689 811.205627,340.142914 809.529480,332.820129 
	C809.100281,330.945007 808.116577,329.780823 806.249512,328.824463 
	C799.621582,325.429626 799.248779,317.898163 805.411255,313.578430 
	C808.678833,311.287933 812.161316,309.306152 815.503662,307.119080 
	C816.679688,306.349579 818.293457,305.786560 817.842102,303.391022 
	C814.324524,303.443024 811.112915,304.692902 807.883179,305.872162 
	C794.178406,310.876251 787.150940,322.254608 781.608704,334.519318 
	C774.450928,350.359375 766.032043,365.431793 756.544373,379.944519 
	C744.951599,397.677002 732.553833,414.741119 716.820129,429.167969 
	C707.926147,437.323273 697.893127,443.849487 687.896484,450.448975 
	C684.791687,452.498718 684.003662,454.670807 684.956604,458.390320 
	C687.882080,469.808167 691.158142,481.167877 692.530579,492.935303 
	C692.644043,493.908142 693.018921,494.896881 694.812073,495.350677 
	C700.822937,491.375244 707.316345,487.349091 713.527588,482.926788 
	C741.754517,462.829620 763.734009,436.910645 783.122253,407.636261 
M914.234375,323.733948 
	C916.990356,298.794983 907.171509,278.933411 889.278931,262.441925 
	C879.788025,253.694305 868.920166,247.132233 855.948303,245.477264 
	C834.403564,242.728546 809.980225,260.015167 804.901184,281.191742 
	C803.509277,286.995392 803.551392,292.893768 804.598633,299.093475 
	C809.310974,297.671753 813.376099,296.445312 817.647339,295.156677 
	C817.283630,293.301208 817.007812,291.857117 816.716980,290.416046 
	C814.842957,281.132172 819.657898,272.476654 828.493225,269.252869 
	C834.934204,266.902710 841.798340,270.893616 842.293823,277.276581 
	C843.112732,287.825745 835.996460,296.318878 825.482788,297.380615 
	C825.068848,297.422394 824.687439,297.786743 824.303101,297.994171 
	C827.042053,304.317291 826.351196,307.249451 820.925171,311.410583 
	C818.960083,312.917603 816.800659,314.247009 814.562744,315.303436 
	C811.615234,316.694794 810.652344,318.747681 811.640137,321.766876 
	C814.485779,330.464355 816.727234,339.373962 820.440002,347.769318 
	C828.557434,366.124451 844.647461,376.326111 862.500732,374.548462 
	C889.157898,371.894165 910.396729,351.298523 914.234375,323.733948 
z"/>
<path fill="#000000" opacity="1.000000" stroke="none" 
	d="
M358.059937,178.798737 
	C356.593719,187.533997 351.277802,193.975647 347.351532,201.069214 
	C345.895721,203.699371 345.536560,206.004837 346.002228,209.050400 
	C350.962097,241.488449 360.365570,272.607178 373.262512,302.720367 
	C375.098022,307.006073 377.081665,311.229401 378.861481,315.537506 
	C380.362793,319.171448 381.880035,322.467010 386.525024,323.102844 
	C388.804199,323.414825 389.832520,325.800934 390.651794,327.809631 
	C396.383667,341.863007 404.307678,354.431946 415.357910,364.954590 
	C416.883636,366.407471 418.862152,368.412048 416.665924,370.475616 
	C414.527710,372.484680 412.309845,370.974823 410.526398,369.286407 
	C400.454651,359.751343 392.952362,348.463257 387.721313,335.648010 
	C384.711426,328.274200 384.440002,328.173553 376.615326,330.058746 
	C366.604340,332.470703 357.594910,337.033264 348.980042,342.524994 
	C344.867188,345.146820 343.214294,348.634064 344.126831,353.546021 
	C346.100769,364.171204 350.527435,373.806458 355.618225,383.203979 
	C356.648987,385.106750 357.686340,387.007996 358.642700,388.948364 
	C359.288635,390.258850 359.367523,391.607910 357.861450,392.400360 
	C356.378540,393.180695 355.209290,392.362610 354.483490,391.166199 
	C346.919952,378.698456 339.560730,365.758026 339.190186,351.013336 
	C339.009644,343.829651 337.338684,337.774231 334.859924,331.489502 
	C326.427490,310.109711 322.504120,287.694519 319.674805,265.032257 
	C318.066437,252.149872 316.879547,239.236084 316.603333,226.245117 
	C316.515259,222.101364 315.174500,218.550308 311.755310,215.751602 
	C298.463318,204.871735 295.475006,190.395859 298.315735,174.371017 
	C299.652649,166.829315 302.488434,159.797684 308.164398,154.005859 
	C312.597839,149.481934 317.729187,149.328018 323.357086,150.119141 
	C324.275482,145.978897 322.711517,142.760513 321.725311,139.489410 
	C319.898499,133.429871 317.777557,127.382080 318.321960,120.957787 
	C319.337158,108.976585 327.042603,100.228951 338.726776,97.359642 
	C349.492737,94.715820 362.788971,100.335251 369.096069,110.194725 
	C378.926605,125.562180 374.695862,147.712143 359.858124,158.524673 
	C358.512115,159.505554 357.132111,160.439743 355.770203,161.398911 
	C353.313324,163.129242 352.729431,164.916245 354.770386,167.617386 
	C357.109985,170.713715 358.349335,174.371887 358.059937,178.798737 
M349.273956,254.075989 
	C347.392029,246.837463 345.648071,239.559662 343.600616,232.368271 
	C338.767212,215.391953 338.940887,199.203583 350.052551,184.330109 
	C352.495544,181.060089 352.755127,177.095108 350.814362,172.123642 
	C349.207794,176.254517 348.221497,179.558395 346.682465,182.580841 
	C343.860291,188.123352 338.144043,190.978287 332.175354,190.238739 
	C326.913605,189.586792 323.269531,185.947617 321.606628,179.675095 
	C320.301208,174.750824 320.572205,169.786469 321.216095,164.807922 
	C321.522766,162.436859 322.427643,159.975098 320.562195,157.779938 
	C317.925568,158.530823 318.279083,160.591431 318.223633,162.326172 
	C318.111877,165.820602 318.164642,169.320007 318.121887,172.817032 
	C318.098083,174.762207 318.628632,177.309769 315.759888,177.465485 
	C313.060120,177.612000 313.067383,175.080948 312.625458,173.162125 
	C311.621155,168.801605 312.202881,164.349243 312.278259,159.744370 
	C308.014526,167.029022 312.724976,174.941818 310.274261,182.054718 
	C307.556488,182.163681 307.986145,179.572021 306.112762,178.858231 
	C307.505096,182.774872 308.583588,186.442307 302.485809,185.463806 
	C303.629791,197.228149 308.854858,206.179398 317.732697,213.023544 
	C320.505585,215.161255 321.544861,217.806580 321.335449,221.266495 
	C320.780731,230.432098 321.114349,239.657684 322.598877,248.651184 
	C326.413727,271.761810 329.894135,294.973633 336.490021,317.519897 
	C338.512878,324.434448 340.455994,331.497101 345.082520,338.048798 
	C354.765320,330.721252 365.332550,326.116211 377.026154,322.639069 
	C365.779816,300.180054 356.512573,277.958344 349.273956,254.075989 
M348.789734,103.420769 
	C333.237122,100.667183 322.253540,112.124512 324.481232,126.197395 
	C326.147278,136.722443 329.753357,146.889053 330.917633,157.576263 
	C333.891663,149.833038 337.361328,142.189362 332.139191,134.192749 
	C329.952850,130.844849 329.129364,127.389534 331.969696,124.077927 
	C334.948242,120.605133 337.563568,123.944725 340.209778,125.158257 
	C340.544830,124.399002 340.784058,123.963112 340.934204,123.498451 
	C341.605347,121.421112 342.153595,119.192017 344.788879,118.805962 
	C347.630341,118.389687 348.154968,120.707214 349.311554,122.557556 
	C351.183533,125.552399 353.586792,127.509331 357.512756,125.292740 
	C360.236755,123.754784 363.288635,123.291298 365.841949,125.780350 
	C367.389740,127.289177 367.724152,129.337677 366.919159,131.349564 
	C365.603180,134.638458 362.809326,135.438156 359.590240,135.347015 
	C358.050873,135.303436 356.341217,135.309708 355.586548,136.814835 
	C351.786499,144.393661 348.490173,152.170959 346.292572,160.875412 
	C360.475739,152.530441 369.836365,142.154160 367.528473,125.033241 
	C366.054169,114.096207 360.741333,106.431389 348.789734,103.420769 
M338.106140,155.131012 
	C337.646423,156.879440 336.121887,158.564026 337.672668,160.814590 
	C338.425781,160.239975 339.180237,159.963852 339.386169,159.462448 
	C342.606995,151.620621 345.759827,143.750824 348.920898,135.884476 
	C349.545685,134.329727 349.443481,132.944626 347.876038,131.968979 
	C346.353027,131.020996 344.989349,131.568069 343.720581,132.495285 
	C341.982788,133.765274 341.435486,135.591629 341.106873,137.662567 
	C340.221710,143.240784 339.956879,148.926865 338.106140,155.131012 
M330.569580,182.987137 
	C335.608643,185.179504 337.634399,184.560089 340.473053,179.777145 
	C336.406677,180.954895 332.625702,179.812912 328.937317,178.802582 
	C328.108154,180.693359 329.198639,181.577225 330.569580,182.987137 
z"/>
<path fill="#000000" opacity="1.000000" stroke="none" 
	d="
M354.779175,409.083160 
	C364.079926,413.691559 373.238373,417.677429 382.671051,421.023682 
	C383.768036,421.412811 384.845764,421.864990 385.906891,422.344513 
	C387.846313,423.220917 388.758667,424.668762 387.972382,426.769867 
	C387.252716,428.693024 385.662750,429.035767 383.865906,428.580139 
	C376.897064,426.813232 370.273926,424.152740 363.879120,420.875732 
	C353.198914,415.402710 342.298065,410.440552 331.014496,406.299469 
	C326.275757,404.560333 323.439941,405.978424 321.338867,410.304810 
	C317.088013,419.057831 316.650787,428.606171 315.397003,437.973389 
	C314.758087,442.746613 314.873322,447.628937 314.108887,452.375153 
	C313.173370,458.183685 315.603699,461.519196 320.747772,463.618561 
	C330.613831,467.645020 340.427734,471.799438 350.262604,475.902283 
	C352.260712,476.735840 354.261078,477.564301 356.251190,478.416565 
	C358.205719,479.253571 360.057922,480.382019 359.133728,482.860687 
	C358.168762,485.448792 356.014557,484.830902 354.065460,484.097015 
	C347.052795,481.456421 339.957916,479.003937 333.075287,476.057190 
	C326.805664,473.372833 320.731415,470.217224 314.647949,467.118378 
	C310.790649,465.153473 308.521118,461.984467 308.769012,457.477356 
	C308.958496,454.033051 307.348389,451.743469 304.474487,450.210388 
	C280.268890,437.297729 262.221466,417.467865 244.787094,396.981262 
	C229.785324,379.353027 217.631989,359.915527 208.543854,338.609589 
	C207.520828,336.211273 204.851105,332.854828 208.358459,331.138000 
	C212.220337,329.247620 213.270065,333.632477 214.405136,336.059387 
	C223.691040,355.913574 234.825485,374.624451 248.355026,391.882324 
	C264.094421,411.959045 282.487946,429.235382 303.413696,443.817932 
	C304.488983,444.567261 305.662506,445.175690 307.200928,446.095184 
	C309.636353,441.104858 308.710541,435.831329 309.589294,430.908447 
	C310.583954,425.336426 311.042328,419.599884 313.293304,414.405670 
	C315.272278,409.839172 314.158112,407.302032 310.176941,404.511383 
	C289.110352,389.744720 269.601013,373.140533 251.895065,354.418274 
	C236.749420,338.403290 223.999496,320.988617 216.507126,299.944305 
	C212.299835,288.126892 200.183563,279.997467 188.959549,280.221405 
	C187.366364,280.253174 185.241852,279.756622 184.699875,281.853546 
	C184.083450,284.238495 186.289902,284.847565 187.916397,285.580170 
	C189.431244,286.262451 191.037766,286.738220 192.588211,287.345062 
	C195.993408,288.677826 200.742523,289.086884 197.794830,294.867096 
	C197.634338,295.181763 197.970200,295.836273 198.210587,296.254700 
	C199.837692,299.087250 199.657715,301.755005 197.200226,303.941162 
	C194.514557,306.330322 191.624298,305.187225 188.757095,304.094177 
	C185.181061,302.730896 183.170197,298.972656 178.485931,297.473541 
	C178.687836,303.387695 182.340485,306.079926 186.005966,308.701050 
	C188.722458,310.643585 191.378281,311.525238 193.476456,307.742096 
	C194.001114,306.796051 195.120865,306.582764 196.134399,307.067871 
	C197.399475,307.673340 197.576019,308.828217 197.265488,310.049835 
	C197.062286,310.849243 196.606995,311.585510 196.411850,312.385925 
	C194.454453,320.415161 194.466690,320.407257 202.358505,323.260406 
	C203.448563,323.654510 204.553192,324.093109 205.525085,324.709717 
	C207.021576,325.659088 208.175964,327.014374 207.261261,328.871796 
	C206.238617,330.948364 204.505356,330.194824 202.941818,329.515869 
	C199.434677,327.992920 195.944534,326.430817 192.432281,324.919922 
	C192.173035,324.808380 191.792297,324.979279 191.275345,325.042450 
	C189.582367,326.993500 190.116257,329.684143 189.469925,332.012939 
	C188.577805,335.227478 187.316528,337.896118 183.468048,337.171295 
	C179.834274,336.486877 178.454315,333.096771 179.104630,330.288727 
	C180.570877,323.957520 178.425705,318.853394 175.312851,313.775391 
	C171.963882,308.312256 172.692230,302.665955 174.492111,296.916809 
	C176.113220,291.738586 178.712952,286.826782 177.479202,280.957886 
	C176.918854,278.292419 179.322891,276.299622 181.771301,275.438141 
	C186.358398,273.824188 187.899582,270.343231 188.714035,265.969696 
	C190.481552,256.478363 192.324036,246.984680 195.983902,237.983719 
	C196.896240,235.739899 196.853027,233.800812 195.067810,232.033218 
	C187.792114,224.829361 189.550293,208.748291 198.650574,200.933151 
	C201.554932,198.438950 204.368805,195.839523 207.231461,193.296570 
	C210.786545,190.138535 212.893784,190.327240 215.992523,194.065659 
	C224.375687,204.179382 222.522858,222.369598 211.821640,232.277206 
	C209.424026,234.497025 208.247040,236.728561 207.929840,239.923843 
	C206.907166,250.225479 203.793854,260.125000 201.627365,270.205292 
	C200.690140,274.565979 201.910431,276.848328 205.771805,278.943634 
	C215.328705,284.129425 221.880493,292.115021 223.764771,302.893799 
	C225.536545,313.028809 231.798981,320.312714 237.704758,327.894684 
	C259.399719,355.747101 285.890198,378.506287 314.089111,399.433502 
	C316.525543,401.241638 318.727112,402.187683 321.795197,400.473145 
	C325.029022,398.665985 328.635864,399.430450 332.015503,400.495270 
	C339.640167,402.897491 347.213593,405.453186 354.779175,409.083160 
M202.640625,218.586060 
	C207.071304,216.453918 205.809753,220.327911 206.047455,222.063278 
	C206.362198,224.361206 204.452408,226.779510 206.472839,229.761932 
	C214.344879,223.448532 216.122528,215.276260 215.648865,206.203293 
	C215.268417,207.432968 215.200378,208.763763 214.795441,209.982620 
	C214.027435,212.294403 214.434509,216.399719 210.818405,215.603973 
	C207.383011,214.847992 208.890259,211.330002 209.380859,208.789795 
	C209.435333,208.507812 209.307602,208.190628 209.264923,207.893661 
	C203.053345,209.122101 205.848038,204.848648 206.174500,202.067612 
	C195.259033,209.340393 192.502823,221.091995 199.910294,227.769913 
	C200.637100,224.864365 200.623734,221.788635 202.640625,218.586060 
M185.221695,296.315552 
	C187.822723,298.265533 190.096146,301.059204 194.414688,299.988342 
	C192.677841,295.854950 189.998306,293.051453 186.756699,290.829193 
	C185.520370,289.981628 183.746002,288.637360 182.290985,290.129333 
	C180.727264,291.732819 182.464111,293.110840 183.346069,294.410889 
	C183.710403,294.947937 184.247452,295.367798 185.221695,296.315552 
M202.093002,244.835953 
	C202.605438,242.860657 203.357391,240.902710 202.383743,238.766586 
	C199.571823,250.171051 195.526505,261.251892 194.935043,273.178192 
	C197.249329,263.983765 199.563614,254.789368 202.093002,244.835953 
M180.237625,311.425812 
	C182.639420,313.978851 185.167664,316.259674 190.527771,315.593414 
	C185.988998,314.167542 183.462616,311.634766 180.237625,311.425812 
z"/>
<path fill="#000000" opacity="1.000000" stroke="none" 
	d="
M305.610931,588.737793 
	C297.565063,594.433533 289.136749,592.581543 283.634399,584.197876 
	C278.743256,576.745483 280.783203,565.322449 287.765930,561.162720 
	C290.631256,559.455811 293.758209,559.226685 296.925690,559.907471 
	C303.782135,561.380920 312.951965,572.234924 313.113861,579.167664 
	C313.229462,584.115967 309.413696,586.242249 305.610931,588.737793 
M299.838806,585.618713 
	C303.435699,584.296204 307.079987,582.270508 305.960907,578.006042 
	C304.689636,573.161560 301.414215,569.174744 296.627777,566.939697 
	C293.202484,565.340149 290.045349,566.795532 288.663605,570.411194 
	C285.576660,578.488892 290.407288,585.600952 299.838806,585.618713 
z"/>
<path fill="#000000" opacity="1.000000" stroke="none" 
	d="
M640.587158,623.392578 
	C636.297852,623.303650 632.475159,623.227356 628.652283,623.221680 
	C626.807068,623.218994 624.938660,623.370178 623.541138,621.843018 
	C622.655457,620.875244 621.525024,619.865112 622.357178,618.384277 
	C622.988403,617.260986 624.393005,616.714294 625.391052,617.168518 
	C632.971680,620.619019 640.932434,618.041443 648.575073,618.141174 
	C661.562744,618.310547 674.258362,621.977295 687.272156,620.658508 
	C687.601440,620.625122 687.941589,620.626160 688.269714,620.666809 
	C690.501526,620.943909 693.722534,620.451111 693.748291,623.565674 
	C693.774902,626.777039 690.594849,626.443848 688.336670,626.344727 
	C677.203674,625.855957 666.066162,625.391602 654.950012,624.630798 
	C650.318726,624.313904 645.606934,624.706909 640.587158,623.392578 
z"/>
<path fill="#000000" opacity="1.000000" stroke="none" 
	d="
M364.989258,82.496796 
	C366.740356,85.917664 365.944092,88.906082 364.534485,91.782570 
	C363.877594,93.123077 362.875885,94.452469 361.082947,93.815331 
	C359.517242,93.258926 358.992737,91.897614 359.032135,90.255424 
	C359.146851,85.471863 361.560669,82.046997 364.989258,82.496796 
z"/>
<path fill="#000000" opacity="1.000000" stroke="none" 
	d="
M391.120911,148.017120 
	C387.750366,150.778122 383.369324,150.458755 381.502289,147.669037 
	C380.264709,145.819885 380.506622,144.165833 382.590790,143.125076 
	C385.121399,141.861374 389.693481,144.287827 391.120911,148.017120 
z"/>
<path fill="#000000" opacity="1.000000" stroke="none" 
	d="
M609.126099,616.374390 
	C612.295532,616.504883 614.800171,617.379333 617.017578,619.302368 
	C612.709595,620.570740 608.642273,624.381470 604.063293,620.107605 
	C604.449158,617.066528 606.672852,616.830933 609.126099,616.374390 
z"/>
<path fill="#000000" opacity="1.000000" stroke="none" 
	d="
M321.831482,89.018036 
	C323.216919,86.146133 325.036987,86.512115 326.763947,88.002098 
	C328.606293,89.591637 330.995148,91.152458 330.488251,93.996017 
	C330.126465,96.025497 328.366058,96.502716 326.658325,95.285316 
	C324.542358,93.776855 322.093933,92.452339 321.831482,89.018036 
z"/>
<path fill="#000000" opacity="1.000000" stroke="none" 
	d="
M344.296570,80.806747 
	C345.095032,82.110161 345.911743,83.091179 346.049072,84.159508 
	C346.324280,86.300545 347.362823,89.497658 344.157593,89.777206 
	C340.652466,90.082916 340.632385,86.324432 340.204590,83.986137 
	C339.764771,81.582344 340.506714,79.215790 344.296570,80.806747 
z"/>
<path fill="#000000" opacity="1.000000" stroke="none" 
	d="
M376.395508,104.263474 
	C374.286591,104.651497 372.968140,104.089645 372.948395,102.159309 
	C372.923462,99.719688 374.740601,98.341286 376.487946,97.057137 
	C377.610931,96.231834 378.898560,95.884262 380.182556,96.795349 
	C381.352722,97.625656 381.331116,98.758667 380.741150,99.884979 
	C379.807159,101.668129 378.678192,103.304108 376.395508,104.263474 
z"/>
<path fill="#000000" opacity="1.000000" stroke="none" 
	d="
M387.346069,132.706299 
	C385.373230,130.897400 385.131561,129.179001 387.325012,128.086166 
	C389.349670,127.077454 391.694275,125.962067 393.768402,128.073853 
	C394.930695,129.257217 394.640320,130.562088 393.257324,131.406067 
	C391.570496,132.435471 389.849670,133.541779 387.346069,132.706299 
z"/>
<path fill="#000000" opacity="1.000000" stroke="none" 
	d="
M307.335876,129.512604 
	C304.730591,129.892624 302.840088,129.366760 302.939362,126.734116 
	C303.009613,124.871002 304.692719,124.081520 306.399109,123.837936 
	C308.259857,123.572311 310.361481,123.735207 311.014221,125.687546 
	C311.894867,128.321548 309.650360,128.913101 307.335876,129.512604 
z"/>
<path fill="#000000" opacity="1.000000" stroke="none" 
	d="
M306.861938,104.283295 
	C308.282837,101.660019 309.890228,102.235619 311.437561,103.606758 
	C312.919861,104.920227 314.614441,106.278252 314.069672,108.588234 
	C313.534271,110.858513 311.886200,110.986336 310.281433,109.821266 
	C308.548035,108.562813 306.927216,107.065163 306.861938,104.283295 
z"/>
<path fill="#000000" opacity="1.000000" stroke="none" 
	d="
M384.182007,117.369400 
	C381.616333,116.091576 381.919098,114.436966 383.177734,112.766502 
	C384.298676,111.278717 385.745575,109.928001 387.712219,110.149437 
	C389.651672,110.367805 390.073029,111.969482 389.280212,113.513443 
	C388.294800,115.432411 386.993256,117.207710 384.182007,117.369400 
z"/>
<path fill="#000000" opacity="1.000000" stroke="none" 
	d="
M488.329193,336.438416 
	C490.640503,339.705200 495.003204,342.612549 488.712433,345.892609 
	C487.981750,346.273590 488.497406,348.736237 488.103333,350.140656 
	C487.438477,352.510101 486.842316,355.213776 483.696838,355.429016 
	C480.418945,355.653351 478.525330,353.841675 477.541992,350.770569 
	C476.325745,346.971741 476.326324,343.290131 478.028137,339.648926 
	C480.240631,334.915131 482.928650,333.984009 488.329193,336.438416 
z"/>
<path fill="#000000" opacity="1.000000" stroke="none" 
	d="
M458.964355,374.397369 
	C462.714874,376.115753 466.063507,375.730072 469.453430,374.367554 
	C471.080963,373.713409 472.886627,373.519714 473.782776,375.453796 
	C474.701080,377.435852 473.201111,378.447174 471.736633,379.390442 
	C467.756470,381.954163 462.367432,382.023834 459.097443,379.270660 
	C457.530762,377.951599 455.224792,376.340271 458.964355,374.397369 
z"/>
<path fill="#000000" opacity="1.000000" stroke="none" 
	d="
M660.981934,103.996033 
	C660.965271,105.131073 661.120178,106.311790 660.935181,107.436592 
	C660.088806,112.580620 657.074524,115.513885 652.956665,115.335785 
	C649.455811,115.184380 645.572021,111.024780 645.076111,106.895660 
	C644.668823,103.504707 648.046143,98.712822 651.615906,97.911026 
	C656.337891,96.850403 659.250122,98.970329 660.828979,103.757553 
	C661.019775,104.060204 660.996887,104.015945 660.981934,103.996033 
z"/>
<path fill="#000000" opacity="1.000000" stroke="none" 
	d="
M883.278198,359.704590 
	C877.489868,361.517975 873.699219,357.026459 868.959290,356.124298 
	C868.390320,356.016022 867.897156,354.910522 867.579224,354.176147 
	C865.015198,348.253510 869.585571,336.844025 875.684265,334.796967 
	C879.892517,333.384399 884.326904,332.395508 888.737183,331.894165 
	C895.227844,331.156311 900.570312,338.011902 898.838440,344.584961 
	C896.748779,352.515900 891.373047,357.260803 883.278198,359.704590 
z"/>
<path fill="#000000" opacity="1.000000" stroke="none" 
	d="
M834.176636,312.364838 
	C840.144897,302.801819 849.039062,301.252289 857.639404,307.977356 
	C860.265015,310.030304 862.608704,312.348724 864.888855,314.799377 
	C869.778259,320.054504 870.881531,325.784515 867.704651,332.174377 
	C864.718445,338.180603 857.503662,341.974609 850.605103,341.179474 
	C844.320984,340.455170 838.719177,338.135315 834.338562,333.347443 
	C831.241333,329.962311 828.109314,326.957092 832.034546,321.768738 
	C833.762268,319.485168 832.290833,315.545105 834.176636,312.364838 
M849.288635,334.400970 
	C851.111450,334.479553 852.973816,334.838531 854.750061,334.587524 
	C861.935791,333.572113 865.969055,326.357483 862.156189,321.186707 
	C859.277161,317.282410 855.697815,313.991425 851.123596,312.030182 
	C844.911133,309.366486 839.698853,311.841522 837.908447,318.275482 
	C835.910583,325.454956 839.235474,330.419647 849.288635,334.400970 
z"/>
<path fill="#000000" opacity="1.000000" stroke="none" 
	d="
M851.001099,281.556824 
	C854.398071,272.649933 860.900513,268.899994 867.914978,271.446411 
	C873.357117,273.422028 876.189819,278.567108 875.176880,284.636108 
	C874.129272,290.912903 869.590271,295.259399 863.954956,295.382172 
	C854.758484,295.582550 850.532104,291.232697 851.001099,281.556824 
M859.664917,279.245056 
	C856.171753,284.075439 856.521240,288.852234 860.528137,289.342407 
	C863.427551,289.697144 866.131348,288.682617 867.748474,285.895508 
	C869.050903,283.650726 869.072815,281.326111 867.411560,279.363251 
	C865.329712,276.903381 862.773987,277.177551 859.664917,279.245056 
z"/>
<path fill="#000000" opacity="1.000000" stroke="none" 
	d="
M875.155884,307.970490 
	C877.139832,308.759644 878.682251,309.776550 880.374512,310.355469 
	C882.583740,311.111237 884.738647,310.682098 886.124512,308.633972 
	C887.234863,306.992828 886.497864,305.460480 885.272156,304.147461 
	C883.612915,302.370026 881.718140,301.772491 879.475464,303.051208 
	C879.331360,303.133362 879.198669,303.237610 879.050232,303.309998 
	C877.132446,304.244934 875.402161,308.122681 873.083801,304.421783 
	C871.109558,301.270355 874.330322,299.644897 876.329407,298.147522 
	C881.420959,294.333954 886.966492,295.162292 890.802551,300.059631 
	C894.760132,305.112244 894.621155,310.097809 890.419861,313.781830 
	C885.504333,318.092194 877.804260,318.454559 874.083618,314.425690 
	C871.974182,312.141449 871.337952,309.793243 875.155884,307.970490 
z"/>
<path fill="#000000" opacity="1.000000" stroke="none" 
	d="
M858.332764,347.934814 
	C859.662109,351.252808 861.088440,354.801239 858.047424,356.931549 
	C854.689026,359.284119 850.370544,360.202942 846.280823,358.504608 
	C841.868347,356.672363 840.655090,351.906403 843.165344,347.680206 
	C845.907410,343.064026 850.945984,341.631409 855.000549,344.454590 
	C856.194946,345.286224 857.089355,346.548828 858.332764,347.934814 
M848.668579,352.893951 
	C849.950378,354.014191 851.376282,355.067413 852.752563,353.255615 
	C853.633118,352.096527 852.669189,351.019562 851.660095,350.471008 
	C849.722351,349.417694 848.583008,350.095551 848.668579,352.893951 
z"/>
</svg>