<svg xmlns="http://www.w3.org/2000/svg" x="0px" y="0px" width="100" height="100" viewBox="0 0 100 100"
style="fill:#228BE6;">
<path d="M 28.125 14.001953 C 27.049637 13.99698 25.968235 14.001112 24.878906 14.017578 A 2.0002 2.0002 0 0 0 24.865234 14.017578 C 22.709645 14.065338 20.659208 14.972197 19.171875 16.533203 C 17.684317 18.093746 16.877872 20.183923 16.933594 22.339844 C 17.190276 39.077281 15.326002 56.399642 16.263672 72.974609 A 2.0002 2.0002 0 0 0 16.265625 73.001953 C 16.574242 77.383286 20.119253 80.880938 24.503906 81.128906 C 42.87904 82.165128 60.096844 82.347066 75.640625 81.285156 A 2.0002 2.0002 0 0 0 75.65625 81.285156 C 80.137912 80.947461 83.574665 77.063891 83.365234 72.574219 A 2.0002 2.0002 0 0 0 83.363281 72.554688 C 82.742931 61.484549 83.039767 61.841058 83.425781 58.162109 C 83.811782 54.483299 84.240271 47.302869 83.837891 22.083984 C 83.809051 20.038995 82.926562 18.096384 81.40625 16.728516 C 79.88587 15.360593 77.86185 14.689564 75.826172 14.875 L 75.832031 14.873047 C 58.937121 16.362784 44.255442 14.076548 28.125 14.001953 z M 28.117188 18.003906 C 40.034321 18.067655 51.435148 19.393127 63.820312 19.376953 L 63.191406 20.005859 A 1.0001 1.0001 0 1 0 64.605469 21.419922 L 66.677734 19.349609 C 67.343136 19.33699 68.011743 19.320561 68.683594 19.298828 L 67.876953 20.105469 A 1.0001 1.0001 0 1 0 69.291016 21.519531 L 71.644531 19.167969 C 72.961113 19.097682 74.289239 19.011199 75.634766 18.898438 L 72.292969 22.240234 A 1.0001 1.0001 0 1 0 73.707031 23.654297 L 78.099609 19.261719 C 78.323609 19.384785 78.536889 19.528955 78.730469 19.703125 C 79.249635 20.170235 79.604585 20.780411 79.755859 21.449219 L 76.3125 24.892578 A 1.0001 1.0001 0 1 0 77.726562 26.306641 L 79.865234 24.167969 C 79.880613 25.216926 79.891894 26.183039 79.904297 27.166016 L 78.169922 28.548828 A 1.0001 1.0001 0 1 0 79.416016 30.113281 L 79.9375 29.697266 C 79.948121 30.683541 79.955309 31.58493 79.962891 32.501953 L 78.539062 33.636719 A 1.0001 1.0001 0 1 0 79.785156 35.201172 L 79.980469 35.046875 C 80.063462 49.799031 79.736392 54.988596 79.447266 57.744141 C 79.08553 61.191692 78.746442 61.632435 79.371094 72.779297 L 79.369141 72.759766 C 79.419928 73.848528 79.062802 74.845998 78.447266 75.634766 L 76.777344 72.603516 A 1.0001 1.0001 0 0 0 75.875 72.074219 A 1.0001 1.0001 0 0 0 75.025391 73.568359 L 76.857422 76.896484 C 76.39615 77.108191 75.894904 77.254275 75.355469 77.294922 C 74.884941 77.327044 74.397649 77.347124 73.923828 77.376953 L 71.392578 73.039062 A 1.0001 1.0001 0 0 0 70.478516 72.53125 A 1.0001 1.0001 0 0 0 69.666016 74.044922 L 71.683594 77.505859 C 62.655556 78.001357 53.06055 78.102169 42.994141 77.869141 L 43.892578 76.976562 A 1.0001 1.0001 0 0 0 43.171875 75.257812 A 1.0001 1.0001 0 0 0 42.482422 75.556641 L 40.228516 77.794922 C 38.759489 77.752601 37.280738 77.704054 35.792969 77.648438 L 37.705078 75.75 A 1.0001 1.0001 0 0 0 36.984375 74.03125 A 1.0001 1.0001 0 0 0 36.294922 74.330078 L 33.0625 77.542969 C 31.686863 77.484673 30.300714 77.418538 28.910156 77.349609 L 31.625 75.177734 A 1.0001 1.0001 0 0 0 30.992188 73.388672 A 1.0001 1.0001 0 0 0 30.375 73.615234 L 25.898438 77.195312 C 25.506982 77.17397 25.123036 77.158857 24.730469 77.136719 C 23.377461 77.060201 22.197925 76.420801 21.382812 75.458984 L 25.783203 73.476562 A 1.0001 1.0001 0 0 0 25.318359 71.560547 A 1.0001 1.0001 0 0 0 24.962891 71.652344 L 20.433594 73.691406 C 20.34561 73.379212 20.279541 73.056898 20.255859 72.720703 C 20.179674 71.369003 20.130092 70.006018 20.089844 68.638672 L 25.568359 67.548828 A 1.0001 1.0001 0 0 0 25.345703 65.566406 A 1.0001 1.0001 0 0 0 25.177734 65.587891 L 20.035156 66.609375 C 20.011706 65.299643 20.021936 63.974101 20.023438 62.652344 A 1.0002025 1.0002025 0 0 0 20.039062 62.650391 L 24.587891 61.884766 A 1.0001 1.0001 0 0 0 24.423828 59.896484 A 1.0001 1.0001 0 0 0 24.255859 59.912109 L 20.015625 60.625 C 20.026938 59.409801 20.059843 58.182522 20.085938 56.958984 L 22.478516 56.822266 A 1.0002522 1.0002522 0 0 0 22.433594 54.822266 A 1.0001 1.0001 0 0 0 22.363281 54.824219 L 20.125 54.953125 C 20.152678 53.909657 20.186405 52.860839 20.220703 51.8125 L 22.302734 51.691406 A 1.0001 1.0001 0 0 0 22.257812 49.693359 A 1.0001 1.0001 0 0 0 22.1875 49.695312 L 20.287109 49.804688 C 20.610066 40.702679 21.075495 31.452044 20.933594 22.257812 A 2.0002 2.0002 0 0 0 20.931641 22.238281 C 20.903361 21.144202 21.311964 20.084426 22.066406 19.292969 C 22.820535 18.501167 23.858019 18.042311 24.951172 18.017578 C 26.011557 18.001636 27.06597 17.998283 28.117188 18.003906 z M 25.080078 25.394531 C 24.528078 25.394531 24.080078 25.842531 24.080078 26.394531 C 24.080078 26.946531 24.528078 27.394531 25.080078 27.394531 C 25.632078 27.394531 26.080078 26.946531 26.080078 26.394531 C 26.080078 25.842531 25.632078 25.394531 25.080078 25.394531 z M 33.273438 25.394531 C 32.721437 25.394531 32.273438 25.842531 32.273438 26.394531 C 32.273438 26.946531 32.721438 27.394531 33.273438 27.394531 C 33.825437 27.394531 34.273438 26.946531 34.273438 26.394531 C 34.273438 25.842531 33.825437 25.394531 33.273438 25.394531 z M 30.080078 29.798828 C 29.528078 29.798828 29.080078 30.246828 29.080078 30.798828 C 29.080078 31.350828 29.528078 31.798828 30.080078 31.798828 C 30.632078 31.798828 31.080078 31.350828 31.080078 30.798828 C 31.080078 30.246828 30.632078 29.798828 30.080078 29.798828 z M 40.689453 31.644531 C 40.358812 31.653203 40.0475 31.670926 39.761719 31.693359 C 38.618591 31.783089 37.876953 31.953125 37.876953 31.953125 A 2.0002 2.0002 0 0 0 36.291016 33.931641 L 36.451172 48.429688 A 2.0002 2.0002 0 0 0 36.458984 49.0625 L 36.611328 62.845703 A 2.0002 2.0002 0 1 0 40.611328 62.800781 L 40.480469 50.900391 C 41.613904 50.944331 42.956963 50.940111 44.425781 50.544922 C 46.081464 50.099458 47.872409 49.184838 49.1875 47.488281 C 50.502591 45.791725 51.249959 43.408563 51.185547 40.376953 C 51.130407 37.77363 50.217814 35.669529 48.814453 34.277344 C 47.411092 32.885158 45.659913 32.22317 44.054688 31.908203 C 42.850767 31.671978 41.681378 31.618517 40.689453 31.644531 z M 41.724609 35.666016 C 42.230037 35.682255 42.759641 35.731252 43.283203 35.833984 C 44.378477 36.048892 45.339205 36.465529 45.996094 37.117188 C 46.652983 37.768845 47.147691 38.673761 47.185547 40.460938 C 47.235637 42.818326 46.700893 44.16762 46.025391 45.039062 C 45.349888 45.910506 44.442411 46.399558 43.386719 46.683594 C 42.360913 46.959588 41.284536 46.976179 40.435547 46.933594 L 40.310547 35.693359 C 40.737931 35.666294 41.219182 35.649776 41.724609 35.666016 z M 61.5 40.839844 C 61.224952 40.847565 60.942398 40.863421 60.65625 40.890625 C 59.511658 40.999442 58.243196 41.267783 57.078125 42.050781 C 55.913054 42.83378 54.962445 44.266614 54.796875 45.958984 C 54.609662 47.871844 55.16513 49.593049 56.011719 50.914062 C 56.858307 52.235076 57.942199 53.219597 58.927734 54.076172 C 59.91327 54.932747 60.812824 55.674794 61.349609 56.296875 C 61.886395 56.918956 62.022684 57.264692 62.007812 57.673828 C 61.960143 58.979469 61.621557 59.593917 61.234375 60.011719 C 60.847193 60.42952 60.299465 60.698172 59.625 60.851562 C 58.276071 61.158344 56.744141 60.869141 56.744141 60.869141 A 2.0005764 2.0005764 0 1 0 55.886719 64.777344 C 55.886719 64.777344 58.075898 65.305921 60.511719 64.751953 C 61.729629 64.474969 63.089932 63.893761 64.167969 62.730469 C 65.246006 61.567177 65.931025 59.868218 66.005859 57.818359 C 66.066989 56.136496 65.26873 54.717075 64.376953 53.683594 C 63.485176 52.650112 62.462449 51.847316 61.552734 51.056641 C 60.64302 50.265966 59.858334 49.500908 59.380859 48.755859 C 58.903385 48.01081 58.679557 47.348749 58.777344 46.349609 C 58.839774 45.71148 58.975056 45.596564 59.310547 45.371094 C 59.646038 45.145623 60.292998 44.943605 61.035156 44.873047 C 62.519473 44.731932 64.130859 45.058594 64.130859 45.058594 A 2.0002 2.0002 0 1 0 64.992188 41.152344 C 64.992188 41.152344 63.425335 40.785797 61.5 40.839844 z"></path>
</svg>