<svg width="600" height="600" viewBox="0 0 600 600" fill="none" xmlns="http://www.w3.org/2000/svg">

<path opacity="1.000000" stroke="none" 
	d="
M304.000000,513.000000 
	C202.691269,513.000000 101.882530,513.000000 1.036899,513.000000 
	C1.036899,342.399567 1.036899,171.799149 1.036899,1.099354 
	C171.558746,1.099354 342.117554,1.099354 512.838196,1.099354 
	C512.838196,171.666550 512.838196,342.333252 512.838196,513.000000 
	C443.465790,513.000000 373.982880,513.000000 304.000000,513.000000 
M491.999756,293.500000 
	C491.999756,228.013901 491.875305,162.527206 492.195587,97.042679 
	C492.227020,90.618698 490.718292,84.823677 488.480194,79.338387 
	C482.323669,64.249458 472.028687,52.526749 457.393799,44.902840 
	C450.162689,41.135864 442.902802,38.788170 434.327393,38.808708 
	C315.852722,39.092434 197.377106,39.049179 78.902016,38.878014 
	C71.870178,38.867859 65.495712,39.956573 59.147820,42.890331 
	C48.653728,47.740299 39.720230,54.478859 32.769249,63.665569 
	C25.745430,72.948540 21.746773,82.922295 21.787870,95.217461 
	C22.153234,204.526825 21.990517,313.837891 22.038843,423.148438 
	C22.040659,427.255707 22.766832,430.967987 24.505194,435.146912 
	C29.859045,448.017395 38.232048,457.825073 49.714882,465.077850 
	C59.477943,471.244446 69.695152,475.250885 81.953964,475.211578 
	C194.262772,474.851532 306.573364,475.086578 418.882812,474.845276 
	C428.521851,474.824585 438.570923,477.619080 447.909393,472.108002 
	C451.850739,469.782074 456.703796,469.006805 460.660553,466.700104 
	C470.384369,461.031372 478.525360,453.313782 483.796448,443.425140 
	C488.217468,435.131287 492.283630,426.676025 492.176208,416.472748 
	C491.748108,375.819061 491.999756,335.158203 491.999756,293.500000 
z"/>
<path fill="#FBDE1A" opacity="1.000000" stroke="none" 
	d="
M491.999756,294.000000 
	C491.999756,335.158203 491.748108,375.819061 492.176208,416.472748 
	C492.283630,426.676025 488.217468,435.131287 483.796448,443.425140 
	C478.525360,453.313782 470.384369,461.031372 460.660553,466.700104 
	C456.703796,469.006805 451.850739,469.782074 447.909393,472.108002 
	C438.570923,477.619080 428.521851,474.824585 418.882812,474.845276 
	C306.573364,475.086578 194.262772,474.851532 81.953964,475.211578 
	C69.695152,475.250885 59.477943,471.244446 49.714882,465.077850 
	C38.232048,457.825073 29.859045,448.017395 24.505194,435.146912 
	C22.766832,430.967987 22.040659,427.255707 22.038843,423.148438 
	C21.990517,313.837891 22.153234,204.526825 21.787870,95.217461 
	C21.746773,82.922295 25.745430,72.948540 32.769249,63.665569 
	C39.720230,54.478859 48.653728,47.740299 59.147820,42.890331 
	C65.495712,39.956573 71.870178,38.867859 78.902016,38.878014 
	C197.377106,39.049179 315.852722,39.092434 434.327393,38.808708 
	C442.902802,38.788170 450.162689,41.135864 457.393799,44.902840 
	C472.028687,52.526749 482.323669,64.249458 488.480194,79.338387 
	C490.718292,84.823677 492.227020,90.618698 492.195587,97.042679 
	C491.875305,162.527206 491.999756,228.013901 491.999756,294.000000 
M161.432236,141.576859 
	C163.328644,140.870178 165.225037,140.163498 167.811417,139.198624 
	C168.543503,139.145370 169.275574,139.092133 170.587967,139.608017 
	C175.697983,139.387772 180.807770,138.982513 185.918045,138.976410 
	C228.727890,138.925217 271.537842,138.947342 314.347748,138.947372 
	C315.973907,138.947372 317.600067,138.947357 319.337921,138.947357 
	C317.538116,145.942062 317.538116,145.942123 324.583038,145.941971 
	C330.912903,145.941818 337.242767,145.941208 343.572632,145.941299 
	C367.226349,145.941635 390.880096,145.947830 414.533813,145.935699 
	C417.589478,145.934143 420.856323,146.133774 420.792206,141.222702 
	C420.792206,141.222702 421.087311,141.033676 421.783569,140.947311 
	C422.096466,140.165787 422.409363,139.384262 422.828094,138.255600 
	C422.828094,138.255600 423.124390,138.046051 423.821991,137.948563 
	C424.106323,137.150284 424.390656,136.352020 424.791901,135.222916 
	C424.791901,135.222916 425.087311,135.033676 425.783630,134.947449 
	C426.096527,134.165878 426.409393,133.384308 426.828094,132.255600 
	C426.828094,132.255600 427.124390,132.046051 427.821991,131.948563 
	C428.106323,131.150299 428.390656,130.352020 428.791901,129.222916 
	C428.791901,129.222916 429.087311,129.033676 429.783600,128.947464 
	C430.096497,128.165894 430.409393,127.384331 430.828094,126.255592 
	C430.828094,126.255592 431.124390,126.046028 431.822052,125.948555 
	C432.106384,125.150307 432.390717,124.352051 432.791870,123.222961 
	C432.791870,123.222961 433.087311,123.033661 433.794556,122.938828 
	C434.079254,122.135651 434.363953,121.332466 434.739563,120.201942 
	C434.739563,120.201942 435.018097,120.007416 435.741913,119.922165 
	C436.017853,119.103500 436.293762,118.284836 436.676971,117.155396 
	C436.676971,117.155396 436.954742,116.979462 437.699036,116.923805 
	C438.389618,115.377373 439.080170,113.830933 439.770721,112.284492 
	C438.279999,111.872955 436.810883,111.272507 435.292938,111.098755 
	C433.485870,110.891922 431.636932,111.051971 429.806122,111.051971 
	C346.255066,111.051910 262.703979,111.040260 179.152985,111.117767 
	C177.067535,111.119698 174.983002,112.106384 172.137894,112.860123 
	C171.083984,112.866379 170.030075,112.872643 168.451538,112.344727 
	C165.601257,113.114990 162.750992,113.885254 159.287537,114.887871 
	C158.852768,114.896507 158.417999,114.905144 157.499161,114.386513 
	C152.050964,116.040306 146.455688,117.332054 141.202667,119.466255 
	C137.237991,121.077034 133.711151,123.765556 129.536560,126.453995 
	C127.801926,127.378143 126.067291,128.302277 123.646362,129.105072 
	C123.091187,129.720490 122.536011,130.335922 121.542786,131.437653 
	C119.776268,132.677872 118.009750,133.918076 115.554070,135.088562 
	C115.043213,135.738342 114.532356,136.388138 113.661987,137.596603 
	C108.101402,143.394119 102.540825,149.191635 96.282883,155.050995 
	C95.927658,155.808899 95.572441,156.566803 94.965240,157.933197 
	C93.567696,159.929672 92.170151,161.926147 90.105103,164.026642 
	C87.923615,168.883270 85.742134,173.739899 83.470680,179.109833 
	C83.274712,179.392456 83.078751,179.675079 82.186874,180.058655 
	C81.440727,182.702698 80.694572,185.346725 79.985672,188.644302 
	C79.866272,189.061096 79.746872,189.477875 78.985741,190.071915 
	C78.633873,192.043777 78.282013,194.015656 77.972649,196.723007 
	C77.825195,197.441162 77.677750,198.159332 76.872429,199.100586 
	C76.560135,202.063248 76.247833,205.025894 76.012733,208.835999 
	C75.887169,210.523621 75.761604,212.211258 74.926407,214.175964 
	C75.144180,217.821823 75.361954,221.467682 75.836128,225.940842 
	C75.869286,227.964813 75.902451,229.988770 75.382530,232.536255 
	C76.120773,235.394547 76.859024,238.252838 77.835510,241.809006 
	C77.873657,242.542572 77.911804,243.276123 77.438194,244.397934 
	C78.125259,245.975815 78.812325,247.553680 79.782753,249.723785 
	C79.810677,250.157837 79.838600,250.591873 79.360840,251.487137 
	C81.158577,255.685455 82.956314,259.883759 85.228432,264.538147 
	C85.493385,265.357239 85.758339,266.176300 85.524796,267.340485 
	C86.599670,268.921539 87.674545,270.502563 89.133141,272.449127 
	C89.266487,272.772766 89.399834,273.096405 89.254524,274.115662 
	C89.829384,274.746582 90.404243,275.377533 91.260216,276.203400 
	C91.260216,276.203400 91.353371,276.532562 91.159042,277.226166 
	C91.742508,277.829041 92.325966,278.431885 93.205482,279.226196 
	C93.205482,279.226196 93.323608,279.558350 93.158775,280.261841 
	C93.766487,280.843719 94.374199,281.425568 95.264977,282.195099 
	C95.264977,282.195099 95.364845,282.519714 95.165268,283.234924 
	C96.087944,284.165527 97.010612,285.096100 98.348846,286.355865 
	C98.642151,286.791962 98.935455,287.228027 99.103920,288.381897 
	C100.070389,289.253998 101.036858,290.126099 102.571220,291.339478 
	C105.713989,294.559906 108.856758,297.780334 112.020416,301.721344 
	C113.126205,302.405060 114.231995,303.088776 115.822792,303.984222 
	C116.206284,304.345093 116.589775,304.705963 117.029175,305.782654 
	C118.155586,306.426575 119.282005,307.070526 120.751472,307.822357 
	C120.751472,307.822357 120.956001,308.118195 121.051720,308.817810 
	C121.850372,309.103027 122.649033,309.388275 123.778679,309.790588 
	C123.778679,309.790588 123.966255,310.087402 124.058983,310.795319 
	C124.863136,311.079529 125.667297,311.363739 126.798866,311.738892 
	C126.798866,311.738892 126.992645,312.018005 127.085335,312.753357 
	C127.919182,312.991730 128.753036,313.230103 130.101501,313.594452 
	C130.372772,313.814270 130.644058,314.034058 131.000763,314.889618 
	C132.665833,315.600159 134.330902,316.310699 136.650681,317.054321 
	C137.406357,317.452118 138.162033,317.849945 139.043671,318.926849 
	C144.799118,321.224670 150.534332,323.576477 156.336426,325.749756 
	C157.035873,326.011749 158.097229,325.307526 159.726562,324.996765 
	C160.447693,325.131256 161.168823,325.265778 162.100662,326.068207 
	C165.063583,326.398804 168.026505,326.729401 171.837021,326.985809 
	C173.524200,327.112640 175.211365,327.239471 177.187851,328.085541 
	C179.269836,328.373138 181.351669,328.910889 183.433823,328.912170 
	C254.053360,328.955688 324.672943,328.933777 395.292389,329.016846 
	C397.439941,329.019379 399.586304,330.039246 401.595337,331.119995 
	C401.362732,331.400269 401.130127,331.680511 400.196014,332.040802 
	C399.340271,333.906036 398.484528,335.771301 397.400330,338.246002 
	C396.221191,339.813751 395.042053,341.381500 393.194641,343.004120 
	C392.425018,344.237823 391.655365,345.471527 390.535614,347.291748 
	C387.465942,350.268219 384.396271,353.244659 380.626129,356.098877 
	C379.733887,357.020508 378.841614,357.942139 377.495728,359.353821 
	C375.457306,360.658356 373.418854,361.962860 370.660065,363.107513 
	C369.424774,364.030853 368.189484,364.954193 366.597809,366.273224 
	C366.274658,366.411346 365.951538,366.549469 364.966583,366.342224 
	C364.295959,366.852203 363.625336,367.362152 362.577881,368.238861 
	C362.248566,368.347687 361.919220,368.456512 360.880829,368.235107 
	C359.543304,368.998077 358.205780,369.761047 356.285675,370.825226 
	C355.853638,370.865967 355.421600,370.906708 354.619873,370.448273 
	C353.369751,371.140442 352.119629,371.832611 350.275391,372.801910 
	C349.842194,372.827240 349.409027,372.852539 348.487732,372.366943 
	C346.284454,373.090851 344.081146,373.814758 341.091644,374.778534 
	C339.724670,374.836487 338.357697,374.894470 336.403076,374.366241 
	C334.583893,374.263794 332.764709,374.072540 330.945496,374.071869 
	C286.293640,374.055267 241.641800,374.058899 196.989944,374.058868 
	C195.247314,374.058868 193.504684,374.058868 191.391632,374.058868 
	C191.830750,372.988068 192.009277,372.560547 192.181824,372.130615 
	C192.944656,370.229828 193.705750,368.328400 194.467484,366.427216 
	C192.292740,365.968567 190.120285,365.124939 187.942886,365.112030 
	C169.949493,365.005005 151.955200,365.052155 133.961166,365.051971 
	C121.965149,365.051880 109.967995,364.961884 97.973923,365.114471 
	C95.087433,365.151184 91.122467,364.484650 91.488876,370.142578 
	C91.268829,370.408264 91.048782,370.673950 90.148369,371.051880 
	C89.857971,371.833282 89.567574,372.614716 89.172478,373.743317 
	C89.172478,373.743317 88.877319,373.953979 88.198311,374.026733 
	C86.886108,376.476562 85.573914,378.926422 84.123497,381.964478 
	C83.671104,382.616943 83.218712,383.269440 82.087410,384.048340 
	C81.832634,384.846466 81.577858,385.644562 81.206253,386.774963 
	C81.206253,386.774963 80.909622,386.964905 80.211441,387.038940 
	C79.542580,388.460571 78.873726,389.882202 78.135437,391.678406 
	C78.135437,391.678406 77.871582,391.953186 77.142479,392.056763 
	C76.636719,393.249695 76.130966,394.442627 75.432564,396.254486 
	C74.808739,397.133423 74.184906,398.012329 72.944023,399.029114 
	C72.811211,399.823486 72.678398,400.617889 72.545578,401.412262 
	C73.353386,401.327057 74.161194,401.241852 75.904945,401.052917 
	C126.997902,401.043823 178.090866,401.020660 229.183823,401.030518 
	C265.130524,401.037476 301.077209,401.089264 337.595886,401.663513 
	C341.259979,401.648468 345.313538,403.442688 348.809174,399.161377 
	C349.543152,399.126404 350.277130,399.091431 351.443481,399.580627 
	C353.336792,398.872772 355.230133,398.164917 357.716522,397.178375 
	C358.148621,397.140839 358.580719,397.103302 359.459015,397.591156 
	C361.794159,397.016937 364.298737,396.800232 366.427979,395.791412 
	C370.436737,393.892059 374.229095,391.535889 378.567963,389.049194 
	C378.923737,388.947968 379.279510,388.846741 380.357849,388.888275 
	C381.583954,387.956604 382.810089,387.024902 384.492493,385.578583 
	C387.520264,383.618378 390.548035,381.658142 394.289978,379.854065 
	C395.201233,378.922394 396.112457,377.990723 397.447144,376.544800 
	C402.318268,371.704651 407.189392,366.864471 412.777222,361.965088 
	C413.417664,360.833801 414.058105,359.702484 414.976013,357.969543 
	C417.041962,355.000214 419.107941,352.030914 421.862305,348.959534 
	C422.497803,347.527710 423.133331,346.095917 423.849976,344.104919 
	C424.022827,343.773407 424.195709,343.441895 425.039124,342.987183 
	C426.088623,341.370026 427.525513,339.881256 428.112396,338.110748 
	C429.647461,333.479980 430.811035,328.726013 432.089294,323.366699 
	C432.218750,322.953033 432.348236,322.539368 433.094299,321.955414 
	C433.403290,320.304810 433.712280,318.654205 433.963806,316.267700 
	C434.097565,315.545990 434.231323,314.824249 435.039185,313.880524 
	C435.392578,310.259521 435.745972,306.638519 436.025116,302.081421 
	C436.057739,296.046204 436.090363,290.011017 436.662567,283.410461 
	C435.892395,279.906525 435.122253,276.402588 434.117554,272.286865 
	C434.105408,271.852661 434.093262,271.418427 434.597687,270.518402 
	C433.898254,268.633759 433.198792,266.749115 432.216644,264.273468 
	C432.188904,263.840363 432.161194,263.407227 432.639465,262.512238 
	C430.643555,256.893158 428.910187,251.160263 426.543732,245.701859 
	C425.315308,242.868484 422.967285,240.520493 420.620087,237.490204 
	C418.646423,234.466904 416.672760,231.443604 414.845093,227.696243 
	C413.883514,226.805069 412.921906,225.913910 411.402557,224.660965 
	C406.603912,219.768768 401.805237,214.876572 396.958710,209.281097 
	C396.192963,208.930099 395.427216,208.579117 394.176758,208.017212 
	C393.792877,207.657349 393.408997,207.297485 392.980011,206.248596 
	C387.606445,202.789215 382.353973,199.116791 376.806580,195.963226 
	C374.161469,194.459549 370.955658,193.942245 367.351715,192.953766 
	C366.944519,192.810272 366.537292,192.666794 366.008606,191.909256 
	C364.680542,191.560425 363.352509,191.211594 361.370544,190.897064 
	C360.957886,190.768097 360.545197,190.639114 359.992554,189.872971 
	C358.336243,189.537674 356.679901,189.202393 354.370178,188.905869 
	C353.954010,188.784302 353.537872,188.662750 352.915680,187.899490 
	C350.612274,187.589478 348.308899,187.279449 345.217468,187.042130 
	C344.178619,186.908722 343.139740,186.775330 341.848541,185.942261 
	C337.816925,185.331787 333.786133,184.195190 329.753601,184.189056 
	C258.874298,184.081055 187.994797,184.127228 117.115440,184.039246 
	C114.811157,184.036377 112.508194,182.969818 110.351448,181.867447 
	C110.577713,181.582397 110.803978,181.297348 111.739517,180.944778 
	C112.405754,179.504425 113.071983,178.064087 113.884323,176.015366 
	C114.602776,175.017288 115.321228,174.019196 116.722824,172.943222 
	C117.084496,172.199097 117.446159,171.454956 118.036499,170.092697 
	C124.450142,161.646652 132.136093,154.634659 142.113205,149.697189 
	C145.261078,148.334305 148.454208,147.065491 151.542892,145.579559 
	C154.131989,144.333954 156.599182,142.834915 159.716431,141.176361 
	C160.148483,141.139099 160.580521,141.101822 161.432236,141.576859 
z"/>
<path fill="#080701" opacity="1.000000" stroke="none" 
	d="
M80.909622,386.964905 
	C80.909622,386.964905 81.206253,386.774963 81.553864,386.477722 
	C82.189758,385.427643 82.478050,384.674774 82.766327,383.921936 
	C83.218712,383.269440 83.671104,382.616943 84.511581,381.548706 
	C86.225548,378.739960 87.551430,376.346985 88.877319,373.953979 
	C88.877319,373.953979 89.172478,373.743317 89.521675,373.455109 
	C90.190155,372.424469 90.509430,371.682068 90.828720,370.939636 
	C91.048782,370.673950 91.268829,370.408264 91.867981,369.679443 
	C94.472076,368.454987 96.693787,367.042175 98.922577,367.030914 
	C128.201355,366.883118 157.481110,366.928131 186.760620,366.946259 
	C188.492798,366.947327 190.224884,367.131622 192.544418,367.264221 
	C191.212601,370.220337 190.197983,372.472412 188.846436,375.472351 
	C191.288879,375.610016 192.880188,375.777557 194.471542,375.778046 
	C240.220795,375.791565 285.970032,375.797668 331.719269,375.752686 
	C333.476685,375.750946 335.233582,375.230957 336.990723,374.952454 
	C338.357697,374.894470 339.724670,374.836487 341.846252,374.803772 
	C344.725830,374.178650 346.850830,373.528259 348.975830,372.877869 
	C349.409027,372.852539 349.842194,372.827240 350.890259,372.773590 
	C352.666626,372.145996 353.828094,371.546722 354.989563,370.947449 
	C355.421600,370.906708 355.853638,370.865967 356.899353,370.770691 
	C358.871979,369.999237 360.230957,369.282288 361.589905,368.565338 
	C361.919220,368.456512 362.248566,368.347687 363.073792,368.113098 
	C364.255951,367.554108 364.942169,367.120880 365.628418,366.687622 
	C365.951538,366.549469 366.274658,366.411346 367.118073,366.092041 
	C368.885681,365.029694 370.133057,364.148529 371.380432,363.267395 
	C373.418854,361.962860 375.457306,360.658356 378.050659,359.131165 
	C379.512573,358.012695 380.419556,357.116882 381.326569,356.221100 
	C384.396271,353.244659 387.465942,350.268219 391.027222,346.947449 
	C392.300201,345.385162 393.081573,344.167206 393.862915,342.949219 
	C395.042053,341.381500 396.221191,339.813751 397.794678,337.766113 
	C399.091888,335.511078 399.994720,333.735931 400.897522,331.960785 
	C401.130127,331.680511 401.362732,331.400269 401.933350,330.617493 
	C403.709167,324.761169 399.273499,327.191803 397.766998,327.188812 
	C325.463593,327.045319 253.159866,327.063751 180.856186,327.079468 
	C179.536957,327.079742 178.217758,327.266541 176.898544,327.366272 
	C175.211365,327.239471 173.524200,327.112640 171.125549,326.775391 
	C167.572708,326.176758 164.731323,325.788513 161.889954,325.400299 
	C161.168823,325.265778 160.447693,325.131256 159.107651,324.762390 
	C151.965073,322.434570 145.441391,320.341156 138.917725,318.247742 
	C138.162033,317.849945 137.406357,317.452118 136.162415,316.747253 
	C134.087860,315.711426 132.501587,314.982666 130.915329,314.253876 
	C130.644058,314.034058 130.372772,313.814270 129.668640,313.272156 
	C128.488083,312.639221 127.740364,312.328613 126.992645,312.018005 
	C126.992645,312.018005 126.798866,311.738892 126.498688,311.407928 
	C125.454430,310.747101 124.710342,310.417236 123.966255,310.087402 
	C123.966255,310.087402 123.778679,309.790588 123.484215,309.440857 
	C122.445168,308.766785 121.700584,308.442474 120.956009,308.118195 
	C120.956001,308.118195 120.751472,307.822357 120.468964,307.458740 
	C119.115395,306.419037 118.044319,305.742950 116.973251,305.066833 
	C116.589775,304.705963 116.206284,304.345093 115.481583,303.564392 
	C114.093430,302.429962 113.046478,301.715363 111.999527,301.000732 
	C108.856758,297.780334 105.713989,294.559906 102.270218,290.841919 
	C101.055725,289.450928 100.142235,288.557526 99.228745,287.664124 
	C98.935455,287.228027 98.642151,286.791962 98.142456,285.865143 
	C97.078987,284.422852 96.221916,283.471283 95.364845,282.519714 
	C95.364845,282.519714 95.264977,282.195099 95.130104,281.782654 
	C94.438019,280.766266 93.880814,280.162292 93.323608,279.558350 
	C93.323608,279.558350 93.205482,279.226196 93.063446,278.815063 
	C92.398720,277.780151 91.876045,277.156342 91.353371,276.532562 
	C91.353371,276.532562 91.260216,276.203400 91.134239,275.792816 
	C90.516563,274.728180 90.024872,274.074097 89.533180,273.420044 
	C89.399834,273.096405 89.266487,272.772766 88.987236,271.929993 
	C87.901985,269.939026 86.962639,268.467194 86.023285,266.995392 
	C85.758339,266.176300 85.493385,265.357239 85.024391,263.937195 
	C83.169083,259.232788 81.517807,255.129349 79.866531,251.025925 
	C79.838600,250.591873 79.810677,250.157837 79.748550,249.091003 
	C79.126213,246.975372 78.538078,245.492523 77.949944,244.009689 
	C77.911804,243.276123 77.873657,242.542572 77.841187,241.073944 
	C77.209778,237.563507 76.572693,234.788116 75.935608,232.012741 
	C75.902451,229.988770 75.869286,227.964813 75.850189,225.078018 
	C75.788185,220.776428 75.712112,217.337646 75.636040,213.898880 
	C75.761604,212.211258 75.887169,210.523621 76.223053,208.125214 
	C76.799011,204.568787 77.164658,201.723129 77.530296,198.877487 
	C77.677750,198.159332 77.825195,197.441162 78.205978,196.108505 
	C78.835358,193.627563 79.231422,191.761108 79.627472,189.894669 
	C79.746872,189.477875 79.866272,189.061096 80.233414,188.090729 
	C81.281700,185.010666 82.082245,182.484192 82.882790,179.957718 
	C83.078751,179.675079 83.274712,179.392456 83.773781,178.628357 
	C86.308792,173.405472 88.540695,168.664047 90.772598,163.922623 
	C92.170151,161.926147 93.567696,159.929672 95.393555,157.534393 
	C96.208000,156.420090 96.594116,155.704605 96.980240,154.989136 
	C102.540825,149.191635 108.101402,143.394119 114.163078,137.309387 
	C115.190529,136.400894 115.716881,135.779602 116.243240,135.158295 
	C118.009750,133.918076 119.776268,132.677872 122.084610,131.212677 
	C123.195175,130.400620 123.763916,129.813522 124.332657,129.226425 
	C126.067291,128.302277 127.801926,127.378143 130.125946,126.210487 
	C139.804626,122.282585 148.893936,118.598190 157.983231,114.913788 
	C158.417999,114.905144 158.852768,114.896507 159.988312,114.883682 
	C163.451431,114.212631 166.213806,113.545769 168.976166,112.878906 
	C170.030075,112.872643 171.083984,112.866379 172.975891,112.884315 
	C261.753723,112.908508 349.693512,112.908508 438.168121,112.908508 
	C437.588745,114.852341 437.271759,115.915901 436.954742,116.979462 
	C436.954742,116.979462 436.676971,117.155396 436.343994,117.462135 
	C435.680054,118.515060 435.349091,119.261238 435.018097,120.007416 
	C435.018097,120.007416 434.739563,120.201942 434.408630,120.502151 
	C433.747589,121.546120 433.417450,122.289886 433.087311,123.033661 
	C433.087311,123.033661 432.791870,123.222961 432.442444,123.517548 
	C431.770172,124.556770 431.447296,125.301399 431.124390,126.046028 
	C431.124390,126.046028 430.828094,126.255592 430.479309,126.543839 
	C429.782776,127.565941 429.435059,128.299820 429.087311,129.033676 
	C429.087311,129.033676 428.791901,129.222916 428.442444,129.517517 
	C427.770142,130.556778 427.447266,131.301422 427.124390,132.046051 
	C427.124390,132.046051 426.828094,132.255600 426.479309,132.543839 
	C425.782745,133.565933 425.435028,134.299805 425.087311,135.033676 
	C425.087311,135.033676 424.791901,135.222916 424.442444,135.517517 
	C423.770111,136.556763 423.447235,137.301407 423.124390,138.046051 
	C423.124390,138.046051 422.828094,138.255600 422.479309,138.543839 
	C421.782776,139.565948 421.435059,140.299820 421.087311,141.033676 
	C421.087311,141.033676 420.792206,141.222702 420.389343,141.568604 
	C417.748810,142.682861 415.514465,144.108673 413.272919,144.120026 
	C383.812500,144.269196 354.351074,144.223724 324.889893,144.204575 
	C323.348053,144.203583 321.806335,144.001144 319.923553,143.868439 
	C320.862305,141.484436 321.543793,139.753723 322.465515,137.412842 
	C320.335968,137.263199 318.906464,137.075485 317.476898,137.074966 
	C272.869019,137.058929 228.260956,137.004181 183.653534,137.147079 
	C179.102936,137.161652 174.556198,138.379440 170.007660,139.038895 
	C169.275574,139.092133 168.543503,139.145370 167.115356,139.190720 
	C164.617050,139.810059 162.814819,140.437302 161.012573,141.064545 
	C160.580521,141.101822 160.148483,141.139099 159.063660,141.191101 
	C152.734512,143.930801 147.058136,146.655731 141.381744,149.380676 
	C132.136093,154.634659 124.450142,161.646652 117.613190,170.492081 
	C116.806473,171.601349 116.423073,172.311218 116.039673,173.021103 
	C115.321228,174.019196 114.602776,175.017288 113.494522,176.438965 
	C112.413231,178.245819 111.721733,179.629059 111.030243,181.012299 
	C110.803978,181.297348 110.577713,181.582397 110.008636,182.362152 
	C107.881554,188.653671 112.597420,186.462555 114.596519,186.465714 
	C186.454590,186.579361 258.312866,186.558716 330.171112,186.562744 
	C334.147705,186.562973 338.124298,186.614349 342.100891,186.641937 
	C343.139740,186.775330 344.178619,186.908722 345.862183,187.269043 
	C348.711823,187.844376 350.916748,188.192780 353.121704,188.541199 
	C353.537872,188.662750 353.954010,188.784302 354.936768,189.133911 
	C357.046417,189.744675 358.589478,190.127411 360.132538,190.510132 
	C360.545197,190.639114 360.957886,190.768097 361.914398,191.132141 
	C363.682190,191.752594 364.906158,192.137955 366.130096,192.523315 
	C366.537292,192.666794 366.944519,192.810272 367.863464,193.258514 
	C376.591827,198.021378 384.808472,202.479492 393.025085,206.937622 
	C393.408997,207.297485 393.792877,207.657349 394.516602,208.426910 
	C395.573151,209.219193 396.289856,209.601776 397.006592,209.984375 
	C401.805237,214.876572 406.603912,219.768768 411.693054,225.170456 
	C412.888763,226.593399 413.793915,227.506866 414.699097,228.420319 
	C416.672760,231.443604 418.646423,234.466904 420.862732,238.081573 
	C424.781403,246.773331 428.457428,254.873734 432.133453,262.974121 
	C432.161194,263.407227 432.188904,263.840363 432.255005,264.922607 
	C432.889313,267.375916 433.485199,269.180054 434.081116,270.984222 
	C434.093262,271.418427 434.105408,271.852661 434.126343,273.005737 
	C434.797729,277.141693 435.460388,280.558746 436.122986,283.975800 
	C436.090363,290.011017 436.057739,296.046204 435.809814,302.844208 
	C435.184662,307.105499 434.774872,310.604034 434.365082,314.102539 
	C434.231323,314.824249 434.097565,315.545990 433.739044,316.868958 
	C433.168762,319.022034 432.823212,320.573853 432.477692,322.125702 
	C432.348236,322.539368 432.218750,322.953033 431.849060,323.940369 
	C429.195435,330.712799 426.781982,336.911591 424.368561,343.110382 
	C424.195709,343.441895 424.022827,343.773407 423.496094,344.506104 
	C422.486115,346.292084 421.830017,347.676849 421.173920,349.061615 
	C419.107941,352.030914 417.041962,355.000214 414.523376,358.376404 
	C413.400665,359.863617 412.730591,360.943970 412.060516,362.024292 
	C407.189392,366.864471 402.318268,371.704651 396.905273,376.794647 
	C395.434174,377.928955 394.504974,378.813416 393.575775,379.697906 
	C390.548035,381.658142 387.520264,383.618378 383.922791,385.837524 
	C382.113831,386.979492 380.874542,387.862488 379.635254,388.745483 
	C379.279510,388.846741 378.923737,388.947968 377.984650,389.153229 
	C371.271820,391.860107 365.142334,394.462952 359.012817,397.065765 
	C358.580719,397.103302 358.148621,397.140839 357.067322,397.194275 
	C354.615784,397.825623 352.813446,398.441040 351.011108,399.056458 
	C350.277130,399.091431 349.543152,399.126404 348.061951,399.156952 
	C343.884460,399.808685 340.454163,400.464874 337.023895,401.121033 
	C301.077209,401.089264 265.130524,401.037476 229.183823,401.030518 
	C178.090866,401.020660 126.997902,401.043823 75.256180,400.824158 
	C74.258636,400.027374 73.909859,399.459290 73.561081,398.891235 
	C74.184906,398.012329 74.808739,397.133423 75.804382,395.776367 
	C76.741333,394.183228 77.306458,393.068207 77.871582,391.953186 
	C77.871582,391.953186 78.135437,391.678406 78.487625,391.382202 
	C79.529747,389.712311 80.219681,388.338593 80.909622,386.964905 
M101.787682,212.905746 
	C100.956131,218.163788 99.409767,223.472824 103.644485,228.828003 
	C104.476173,228.864548 105.307854,228.933167 106.139542,228.933090 
	C188.768097,228.925232 271.396637,228.912186 354.090851,229.648590 
	C351.877228,232.887848 349.532959,236.046997 347.485077,239.387833 
	C345.228546,243.069077 342.191315,244.094574 337.896881,244.087006 
	C262.249939,243.953445 186.602722,243.987167 110.955544,244.000061 
	C109.208084,244.000351 107.460648,244.179092 105.181229,244.303680 
	C105.675400,246.411682 105.849205,247.874741 106.356483,249.211197 
	C118.275528,280.612549 149.346176,302.007690 182.990677,302.009399 
	C256.804993,302.013153 330.619293,302.011230 404.433624,302.011871 
	C405.433289,302.011871 406.605621,302.347443 407.391388,301.938477 
	C408.516815,301.352722 410.037140,300.329071 410.194824,299.308044 
	C410.644226,296.397583 410.353699,293.382416 410.603546,290.429504 
	C411.021698,285.488678 408.692108,284.555542 404.110657,284.564209 
	C327.630646,284.708954 251.150253,284.667542 174.669952,284.669556 
	C167.369034,284.669769 159.825623,278.177948 158.209229,269.826233 
	C240.999969,269.826233 323.640564,269.826233 406.742737,269.826233 
	C406.372467,267.880219 406.276703,266.740234 405.935974,265.678894 
	C396.310333,235.695007 363.054535,211.355072 331.439453,211.333054 
	C256.625427,211.280914 181.811340,211.309952 106.997322,211.364853 
	C105.500145,211.365952 104.003487,212.084137 102.521339,212.505890 
	C102.521339,212.505890 102.500694,212.538376 101.787682,212.905746 
z"/>
<path fill="#BEA914" opacity="1.000000" stroke="none" 
	d="
M341.974731,186.292084 
	C338.124298,186.614349 334.147705,186.562973 330.171112,186.562744 
	C258.312866,186.558716 186.454590,186.579361 114.596519,186.465714 
	C112.597420,186.462555 107.881554,188.653671 109.935219,182.627991 
	C112.508194,182.969818 114.811157,184.036377 117.115440,184.039246 
	C187.994797,184.127228 258.874298,184.081055 329.753601,184.189056 
	C333.786133,184.195190 337.816925,185.331787 341.974731,186.292084 
z"/>
<path fill="#BEA914" opacity="1.000000" stroke="none" 
	d="
M437.326904,116.951630 
	C437.271759,115.915901 437.588745,114.852341 438.168121,112.908508 
	C349.693512,112.908508 261.753723,112.908508 173.355972,112.771149 
	C174.983002,112.106384 177.067535,111.119698 179.152985,111.117767 
	C262.703979,111.040260 346.255066,111.051910 429.806122,111.051971 
	C431.636932,111.051971 433.485870,110.891922 435.292938,111.098755 
	C436.810883,111.272507 438.279999,111.872955 439.770721,112.284492 
	C439.080170,113.830933 438.389618,115.377373 437.326904,116.951630 
z"/>
<path fill="#BEA914" opacity="1.000000" stroke="none" 
	d="
M170.297821,139.323456 
	C174.556198,138.379440 179.102936,137.161652 183.653534,137.147079 
	C228.260956,137.004181 272.869019,137.058929 317.476898,137.074966 
	C318.906464,137.075485 320.335968,137.263199 322.465515,137.412842 
	C321.543793,139.753723 320.862305,141.484436 319.923553,143.868439 
	C321.806335,144.001144 323.348053,144.203583 324.889893,144.204575 
	C354.351074,144.223724 383.812500,144.269196 413.272919,144.120026 
	C415.514465,144.108673 417.748810,142.682861 420.331238,141.733917 
	C420.856323,146.133774 417.589478,145.934143 414.533813,145.935699 
	C390.880096,145.947830 367.226349,145.941635 343.572632,145.941299 
	C337.242767,145.941208 330.912903,145.941818 324.583038,145.941971 
	C317.538116,145.942123 317.538116,145.942062 319.337921,138.947357 
	C317.600067,138.947357 315.973907,138.947372 314.347748,138.947372 
	C271.537842,138.947342 228.727890,138.925217 185.918045,138.976410 
	C180.807770,138.982513 175.697983,139.387772 170.297821,139.323456 
z"/>
<path fill="#BEA914" opacity="1.000000" stroke="none" 
	d="
M336.696899,374.659363 
	C335.233582,375.230957 333.476685,375.750946 331.719269,375.752686 
	C285.970032,375.797668 240.220795,375.791565 194.471542,375.778046 
	C192.880188,375.777557 191.288879,375.610016 188.846436,375.472351 
	C190.197983,372.472412 191.212601,370.220337 192.544418,367.264221 
	C190.224884,367.131622 188.492798,366.947327 186.760620,366.946259 
	C157.481110,366.928131 128.201355,366.883118 98.922577,367.030914 
	C96.693787,367.042175 94.472076,368.454987 91.936646,369.427002 
	C91.122467,364.484650 95.087433,365.151184 97.973923,365.114471 
	C109.967995,364.961884 121.965149,365.051880 133.961166,365.051971 
	C151.955200,365.052155 169.949493,365.005005 187.942886,365.112030 
	C190.120285,365.124939 192.292740,365.968567 194.467468,366.427185 
	C193.705750,368.328400 192.944656,370.229828 192.181824,372.130615 
	C192.009277,372.560547 191.830750,372.988068 191.391632,374.058868 
	C193.504684,374.058868 195.247314,374.058868 196.989944,374.058868 
	C241.641800,374.058899 286.293640,374.055267 330.945496,374.071869 
	C332.764709,374.072540 334.583893,374.263794 336.696899,374.659363 
z"/>
<path fill="#BEA914" opacity="1.000000" stroke="none" 
	d="
M177.043198,327.725922 
	C178.217758,327.266541 179.536957,327.079742 180.856186,327.079468 
	C253.159866,327.063751 325.463593,327.045319 397.766998,327.188812 
	C399.273499,327.191803 403.709167,324.761169 402.002289,330.349915 
	C399.586304,330.039246 397.439941,329.019379 395.292389,329.016846 
	C324.672943,328.933777 254.053360,328.955688 183.433823,328.912170 
	C181.351669,328.910889 179.269836,328.373138 177.043198,327.725922 
z"/>
<path fill="#BEA914" opacity="1.000000" stroke="none" 
	d="
M157.741196,114.650154 
	C148.893936,118.598190 139.804626,122.282585 130.352386,125.970680 
	C133.711151,123.765556 137.237991,121.077034 141.202667,119.466255 
	C146.455688,117.332054 152.050964,116.040306 157.741196,114.650154 
z"/>
<path fill="#BEA914" opacity="1.000000" stroke="none" 
	d="
M393.002563,206.593109 
	C384.808472,202.479492 376.591827,198.021378 368.189514,193.270721 
	C370.955658,193.942245 374.161469,194.459549 376.806580,195.963226 
	C382.353973,199.116791 387.606445,202.789215 393.002563,206.593109 
z"/>
<path fill="#BEA914" opacity="1.000000" stroke="none" 
	d="
M432.386475,262.743164 
	C428.457428,254.873734 424.781403,246.773331 421.115204,238.313080 
	C422.967285,240.520493 425.315308,242.868484 426.543732,245.701859 
	C428.910187,251.160263 430.643555,256.893158 432.386475,262.743164 
z"/>
<path fill="#BEA914" opacity="1.000000" stroke="none" 
	d="
M138.980698,318.587280 
	C145.441391,320.341156 151.965073,322.434570 158.739792,324.789551 
	C158.097229,325.307526 157.035873,326.011749 156.336426,325.749756 
	C150.534332,323.576477 144.799118,321.224670 138.980698,318.587280 
z"/>
<path fill="#BEA914" opacity="1.000000" stroke="none" 
	d="
M424.703827,343.048767 
	C426.781982,336.911591 429.195435,330.712799 431.865784,324.267578 
	C430.811035,328.726013 429.647461,333.479980 428.112396,338.110748 
	C427.525513,339.881256 426.088623,341.370026 424.703827,343.048767 
z"/>
<path fill="#BEA914" opacity="1.000000" stroke="none" 
	d="
M359.235901,397.328461 
	C365.142334,394.462952 371.271820,391.860107 377.756348,389.313477 
	C374.229095,391.535889 370.436737,393.892059 366.427979,395.791412 
	C364.298737,396.800232 361.794159,397.016937 359.235901,397.328461 
z"/>
<path fill="#BEA914" opacity="1.000000" stroke="none" 
	d="
M141.747467,149.538940 
	C147.058136,146.655731 152.734512,143.930801 158.765625,141.326981 
	C156.599182,142.834915 154.131989,144.333954 151.542892,145.579559 
	C148.454208,147.065491 145.261078,148.334305 141.747467,149.538940 
z"/>
<path fill="#BEA914" opacity="1.000000" stroke="none" 
	d="
M90.438858,163.974640 
	C88.540695,168.664047 86.308792,173.405472 83.818764,178.371719 
	C85.742134,173.739899 87.923615,168.883270 90.438858,163.974640 
z"/>
<path fill="#BEA914" opacity="1.000000" stroke="none" 
	d="
M79.613686,251.256531 
	C81.517807,255.129349 83.169083,259.232788 84.787201,263.709167 
	C82.956314,259.883759 81.158577,255.685455 79.613686,251.256531 
z"/>
<path fill="#BEA914" opacity="1.000000" stroke="none" 
	d="
M436.392792,283.693115 
	C435.460388,280.558746 434.797729,277.141693 434.243591,273.311646 
	C435.122253,276.402588 435.892395,279.906525 436.392792,283.693115 
z"/>
<path fill="#BEA914" opacity="1.000000" stroke="none" 
	d="
M434.702148,313.991516 
	C434.774872,310.604034 435.184662,307.105499 435.846924,303.312256 
	C435.745972,306.638519 435.392578,310.259521 434.702148,313.991516 
z"/>
<path fill="#BEA914" opacity="1.000000" stroke="none" 
	d="
M337.309875,401.392273 
	C340.454163,400.464874 343.884460,399.808685 347.712738,399.276367 
	C345.313538,403.442688 341.259979,401.648468 337.309875,401.392273 
z"/>
<path fill="#BEA914" opacity="1.000000" stroke="none" 
	d="
M75.281219,214.037415 
	C75.712112,217.337646 75.788185,220.776428 75.721992,224.664368 
	C75.361954,221.467682 75.144180,217.821823 75.281219,214.037415 
z"/>
<path fill="#BEA914" opacity="1.000000" stroke="none" 
	d="
M168.713852,112.611816 
	C166.213806,113.545769 163.451431,114.212631 160.294891,114.767502 
	C162.750992,113.885254 165.601257,113.114990 168.713852,112.611816 
z"/>
<path fill="#BEA914" opacity="1.000000" stroke="none" 
	d="
M75.659073,232.274506 
	C76.572693,234.788116 77.209778,237.563507 77.722069,240.725006 
	C76.859024,238.252838 76.120773,235.394547 75.659073,232.274506 
z"/>
<path fill="#BEA914" opacity="1.000000" stroke="none" 
	d="
M77.201363,198.989044 
	C77.164658,201.723129 76.799011,204.568787 76.184448,207.701492 
	C76.247833,205.025894 76.560135,202.063248 77.201363,198.989044 
z"/>
<path fill="#BEA914" opacity="1.000000" stroke="none" 
	d="
M161.995300,325.734253 
	C164.731323,325.788513 167.572708,326.176758 170.701752,326.812500 
	C168.026505,326.729401 165.063583,326.398804 161.995300,325.734253 
z"/>
<path fill="#BEA914" opacity="1.000000" stroke="none" 
	d="
M82.534836,180.008179 
	C82.082245,182.484192 81.281700,185.010666 80.214783,187.763947 
	C80.694572,185.346725 81.440727,182.702698 82.534836,180.008179 
z"/>
<path fill="#BEA914" opacity="1.000000" stroke="none" 
	d="
M88.537811,373.990356 
	C87.551430,376.346985 86.225548,378.739960 84.580688,381.254639 
	C85.573914,378.926422 86.886108,376.476562 88.537811,373.990356 
z"/>
<path fill="#BEA914" opacity="1.000000" stroke="none" 
	d="
M348.731781,372.622406 
	C346.850830,373.528259 344.725830,374.178650 342.239349,374.683838 
	C344.081146,373.814758 346.284454,373.090851 348.731781,372.622406 
z"/>
<path fill="#BEA914" opacity="1.000000" stroke="none" 
	d="
M353.018677,188.220337 
	C350.916748,188.192780 348.711823,187.844376 346.256165,187.232697 
	C348.308899,187.279449 350.612274,187.589478 353.018677,188.220337 
z"/>
<path fill="#BEA914" opacity="1.000000" stroke="none" 
	d="
M79.306610,189.983292 
	C79.231422,191.761108 78.835358,193.627563 78.184723,195.740753 
	C78.282013,194.015656 78.633873,192.043777 79.306610,189.983292 
z"/>
<path fill="#BEA914" opacity="1.000000" stroke="none" 
	d="
M351.227295,399.318542 
	C352.813446,398.441040 354.615784,397.825623 356.770782,397.333618 
	C355.230133,398.164917 353.336792,398.872772 351.227295,399.318542 
z"/>
<path fill="#BEA914" opacity="1.000000" stroke="none" 
	d="
M434.339417,270.751312 
	C433.485199,269.180054 432.889313,267.375916 432.396362,265.218140 
	C433.198792,266.749115 433.898254,268.633759 434.339417,270.751312 
z"/>
<path fill="#BEA914" opacity="1.000000" stroke="none" 
	d="
M161.222412,141.320709 
	C162.814819,140.437302 164.617050,139.810059 166.770370,139.319809 
	C165.225037,140.163498 163.328644,140.870178 161.222412,141.320709 
z"/>
<path fill="#BEA914" opacity="1.000000" stroke="none" 
	d="
M130.958038,314.571747 
	C132.501587,314.982666 134.087860,315.711426 135.835052,316.730713 
	C134.330902,316.310699 132.665833,315.600159 130.958038,314.571747 
z"/>
<path fill="#BEA914" opacity="1.000000" stroke="none" 
	d="
M400.546753,332.000793 
	C399.994720,333.735931 399.091888,335.511078 397.908936,337.461365 
	C398.484528,335.771301 399.340271,333.906036 400.546753,332.000793 
z"/>
<path fill="#BEA914" opacity="1.000000" stroke="none" 
	d="
M85.774048,267.167938 
	C86.962639,268.467194 87.901985,269.939026 88.795380,271.747223 
	C87.674545,270.502563 86.599670,268.921539 85.774048,267.167938 
z"/>
<path fill="#BEA914" opacity="1.000000" stroke="none" 
	d="
M360.062561,190.191559 
	C358.589478,190.127411 357.046417,189.744675 355.263489,189.114532 
	C356.679901,189.202393 358.336243,189.537674 360.062561,190.191559 
z"/>
<path fill="#BEA914" opacity="1.000000" stroke="none" 
	d="
M77.694069,244.203812 
	C78.538078,245.492523 79.126213,246.975372 79.606865,248.794891 
	C78.812325,247.553680 78.125259,245.975815 77.694069,244.203812 
z"/>
<path fill="#BEA914" opacity="1.000000" stroke="none" 
	d="
M432.786011,322.040558 
	C432.823212,320.573853 433.168762,319.022034 433.767761,317.236877 
	C433.712280,318.654205 433.403290,320.304810 432.786011,322.040558 
z"/>
<path fill="#BEA914" opacity="1.000000" stroke="none" 
	d="
M354.804718,370.697876 
	C353.828094,371.546722 352.666626,372.145996 351.187317,372.635010 
	C352.119629,371.832611 353.369751,371.140442 354.804718,370.697876 
z"/>
<path fill="#BEA914" opacity="1.000000" stroke="none" 
	d="
M361.235352,368.400208 
	C360.230957,369.282288 358.871979,369.999237 357.190643,370.620087 
	C358.205780,369.761047 359.543304,368.998077 361.235352,368.400208 
z"/>
<path fill="#BEA914" opacity="1.000000" stroke="none" 
	d="
M366.069336,192.216278 
	C364.906158,192.137955 363.682190,191.752594 362.241333,191.114990 
	C363.352509,191.211594 364.680542,191.560425 366.069336,192.216278 
z"/>
<path fill="#BEA914" opacity="1.000000" stroke="none" 
	d="
M421.518127,349.010559 
	C421.830017,347.676849 422.486115,346.292084 423.455536,344.785706 
	C423.133331,346.095917 422.497803,347.527710 421.518127,349.010559 
z"/>
<path fill="#BEA914" opacity="1.000000" stroke="none" 
	d="
M111.384880,180.978546 
	C111.721733,179.629059 112.413231,178.245819 113.421471,176.743164 
	C113.071983,178.064087 112.405754,179.504425 111.384880,180.978546 
z"/>
<path fill="#BEA914" opacity="1.000000" stroke="none" 
	d="
M379.996552,388.816895 
	C380.874542,387.862488 382.113831,386.979492 383.694641,386.094849 
	C382.810089,387.024902 381.583954,387.956604 379.996552,388.816895 
z"/>
<path fill="#BEA914" opacity="1.000000" stroke="none" 
	d="
M393.528778,342.976685 
	C393.081573,344.167206 392.300201,345.385162 391.202301,346.654205 
	C391.655365,345.471527 392.425018,344.237823 393.528778,342.976685 
z"/>
<path fill="#BEA914" opacity="1.000000" stroke="none" 
	d="
M73.252548,398.960175 
	C73.909859,399.459290 74.258636,400.027374 74.788208,400.876038 
	C74.161194,401.241852 73.353386,401.327057 72.545578,401.412262 
	C72.678398,400.617889 72.811211,399.823486 73.252548,398.960175 
z"/>
<path fill="#BEA914" opacity="1.000000" stroke="none" 
	d="
M80.560532,387.001923 
	C80.219681,388.338593 79.529747,389.712311 78.522346,391.194916 
	C78.873726,389.882202 79.542580,388.460571 80.560532,387.001923 
z"/>
<path fill="#BEA914" opacity="1.000000" stroke="none" 
	d="
M371.020264,363.187439 
	C370.133057,364.148529 368.885681,365.029694 367.296265,365.894226 
	C368.189484,364.954193 369.424774,364.030853 371.020264,363.187439 
z"/>
<path fill="#BEA914" opacity="1.000000" stroke="none" 
	d="
M380.976349,356.159973 
	C380.419556,357.116882 379.512573,358.012695 378.277466,358.886108 
	C378.841614,357.942139 379.733887,357.020508 380.976349,356.159973 
z"/>
<path fill="#BEA914" opacity="1.000000" stroke="none" 
	d="
M77.507034,392.004974 
	C77.306458,393.068207 76.741333,394.183228 75.900711,395.466919 
	C76.130966,394.442627 76.636719,393.249695 77.507034,392.004974 
z"/>
<path fill="#BEA914" opacity="1.000000" stroke="none" 
	d="
M412.418884,361.994690 
	C412.730591,360.943970 413.400665,359.863617 414.384644,358.677246 
	C414.058105,359.702484 413.417664,360.833801 412.418884,361.994690 
z"/>
<path fill="#BEA914" opacity="1.000000" stroke="none" 
	d="
M117.001213,305.424744 
	C118.044319,305.742950 119.115395,306.419037 120.297440,307.404816 
	C119.282005,307.070526 118.155586,306.426575 117.001213,305.424744 
z"/>
<path fill="#BEA914" opacity="1.000000" stroke="none" 
	d="
M112.009972,301.361023 
	C113.046478,301.715363 114.093430,302.429962 115.239082,303.458557 
	C114.231995,303.088776 113.126205,302.405060 112.009972,301.361023 
z"/>
<path fill="#BEA914" opacity="1.000000" stroke="none" 
	d="
M99.166336,288.023010 
	C100.142235,288.557526 101.055725,289.450928 101.986267,290.671265 
	C101.036858,290.126099 100.070389,289.253998 99.166336,288.023010 
z"/>
<path fill="#BEA914" opacity="1.000000" stroke="none" 
	d="
M95.265060,282.877319 
	C96.221916,283.471283 97.078987,284.422852 97.934669,285.700562 
	C97.010612,285.096100 96.087944,284.165527 95.265060,282.877319 
z"/>
<path fill="#BEA914" opacity="1.000000" stroke="none" 
	d="
M414.772095,228.058289 
	C413.793915,227.506866 412.888763,226.593399 411.971954,225.351349 
	C412.921906,225.913910 413.883514,226.805069 414.772095,228.058289 
z"/>
<path fill="#BEA914" opacity="1.000000" stroke="none" 
	d="
M393.932861,379.775970 
	C394.504974,378.813416 395.434174,377.928955 396.693542,377.051758 
	C396.112457,377.990723 395.201233,378.922394 393.932861,379.775970 
z"/>
<path fill="#BEA914" opacity="1.000000" stroke="none" 
	d="
M365.297485,366.514923 
	C364.942169,367.120880 364.255951,367.554108 363.262207,367.929718 
	C363.625336,367.362152 364.295959,366.852203 365.297485,366.514923 
z"/>
<path fill="#BEA914" opacity="1.000000" stroke="none" 
	d="
M93.241196,279.910095 
	C93.880814,280.162292 94.438019,280.766266 94.988571,281.688843 
	C94.374199,281.425568 93.766487,280.843719 93.241196,279.910095 
z"/>
<path fill="#BEA914" opacity="1.000000" stroke="none" 
	d="
M90.488541,370.995758 
	C90.509430,371.682068 90.190155,372.424469 89.574028,373.281494 
	C89.567574,372.614716 89.857971,371.833282 90.488541,370.995758 
z"/>
<path fill="#BEA914" opacity="1.000000" stroke="none" 
	d="
M82.426880,383.985138 
	C82.478050,384.674774 82.189758,385.427643 81.612274,386.311584 
	C81.577858,385.644562 81.832634,384.846466 82.426880,383.985138 
z"/>
<path fill="#BEA914" opacity="1.000000" stroke="none" 
	d="
M116.381248,172.982162 
	C116.423073,172.311218 116.806473,171.601349 117.498848,170.801147 
	C117.446159,171.454956 117.084496,172.199097 116.381248,172.982162 
z"/>
<path fill="#BEA914" opacity="1.000000" stroke="none" 
	d="
M429.435455,128.990570 
	C429.435059,128.299820 429.782776,127.565941 430.426392,126.717422 
	C430.409393,127.384331 430.096497,128.165894 429.435455,128.990570 
z"/>
<path fill="#BEA914" opacity="1.000000" stroke="none" 
	d="
M123.989510,129.165741 
	C123.763916,129.813522 123.195175,130.400620 122.303635,130.969528 
	C122.536011,130.335922 123.091187,129.720490 123.989510,129.165741 
z"/>
<path fill="#BEA914" opacity="1.000000" stroke="none" 
	d="
M427.473206,131.997314 
	C427.447266,131.301422 427.770142,130.556778 428.384003,129.682938 
	C428.390656,130.352020 428.106323,131.150299 427.473206,131.997314 
z"/>
<path fill="#BEA914" opacity="1.000000" stroke="none" 
	d="
M425.435486,134.990570 
	C425.435028,134.299805 425.782745,133.565933 426.426392,132.717407 
	C426.409393,133.384308 426.096527,134.165878 425.435486,134.990570 
z"/>
<path fill="#BEA914" opacity="1.000000" stroke="none" 
	d="
M115.898651,135.123428 
	C115.716881,135.779602 115.190529,136.400894 114.342834,137.030060 
	C114.532356,136.388138 115.043213,135.738342 115.898651,135.123428 
z"/>
<path fill="#BEA914" opacity="1.000000" stroke="none" 
	d="
M423.473175,137.997299 
	C423.447235,137.301407 423.770111,136.556763 424.383972,135.682922 
	C424.390656,136.352020 424.106323,137.150284 423.473175,137.997299 
z"/>
<path fill="#BEA914" opacity="1.000000" stroke="none" 
	d="
M421.435425,140.990494 
	C421.435059,140.299820 421.782776,139.565948 422.426392,138.717407 
	C422.409363,139.384262 422.096466,140.165787 421.435425,140.990494 
z"/>
<path fill="#BEA914" opacity="1.000000" stroke="none" 
	d="
M96.631561,155.020065 
	C96.594116,155.704605 96.208000,156.420090 95.519547,157.230133 
	C95.572441,156.566803 95.927658,155.808899 96.631561,155.020065 
z"/>
<path fill="#BEA914" opacity="1.000000" stroke="none" 
	d="
M127.038994,312.385681 
	C127.740364,312.328613 128.488083,312.639221 129.411346,313.209167 
	C128.753036,313.230103 127.919182,312.991730 127.038994,312.385681 
z"/>
<path fill="#BEA914" opacity="1.000000" stroke="none" 
	d="
M433.440918,122.986244 
	C433.417450,122.289886 433.747589,121.546120 434.363190,120.665817 
	C434.363953,121.332466 434.079254,122.135651 433.440918,122.986244 
z"/>
<path fill="#BEA914" opacity="1.000000" stroke="none" 
	d="
M396.982666,209.632736 
	C396.289856,209.601776 395.573151,209.219193 394.758942,208.532364 
	C395.427216,208.579117 396.192963,208.930099 396.982666,209.632736 
z"/>
<path fill="#BEA914" opacity="1.000000" stroke="none" 
	d="
M435.380005,119.964790 
	C435.349091,119.261238 435.680054,118.515060 436.290375,117.617523 
	C436.293762,118.284836 436.017853,119.103500 435.380005,119.964790 
z"/>
<path fill="#BEA914" opacity="1.000000" stroke="none" 
	d="
M89.393852,273.767853 
	C90.024872,274.074097 90.516563,274.728180 90.993683,275.695343 
	C90.404243,275.377533 89.829384,274.746582 89.393852,273.767853 
z"/>
<path fill="#BEA914" opacity="1.000000" stroke="none" 
	d="
M91.256210,276.879364 
	C91.876045,277.156342 92.398720,277.780151 92.915413,278.719360 
	C92.325966,278.431885 91.742508,277.829041 91.256210,276.879364 
z"/>
<path fill="#BEA914" opacity="1.000000" stroke="none" 
	d="
M431.473206,125.997292 
	C431.447296,125.301399 431.770172,124.556770 432.384033,123.682968 
	C432.390717,124.352051 432.106384,125.150307 431.473206,125.997292 
z"/>
<path fill="#BEA914" opacity="1.000000" stroke="none" 
	d="
M121.003860,308.468018 
	C121.700584,308.442474 122.445168,308.766785 123.318726,309.382294 
	C122.649033,309.388275 121.850372,309.103027 121.003860,308.468018 
z"/>
<path fill="#BEA914" opacity="1.000000" stroke="none" 
	d="
M124.012619,310.441345 
	C124.710342,310.417236 125.454430,310.747101 126.334991,311.362457 
	C125.667297,311.363739 124.863136,311.079529 124.012619,310.441345 
z"/>
<path fill="#F3D719" opacity="1.000000" stroke="none" 
	d="
M102.506592,212.467773 
	C104.003487,212.084137 105.500145,211.365952 106.997322,211.364853 
	C181.811340,211.309952 256.625427,211.280914 331.439453,211.333054 
	C363.054535,211.355072 396.310333,235.695007 405.935974,265.678894 
	C406.276703,266.740234 406.372467,267.880219 406.742737,269.826233 
	C323.640564,269.826233 240.999969,269.826233 158.209229,269.826233 
	C159.825623,278.177948 167.369034,284.669769 174.669952,284.669556 
	C251.150253,284.667542 327.630646,284.708954 404.110657,284.564209 
	C408.692108,284.555542 411.021698,285.488678 410.603546,290.429504 
	C410.353699,293.382416 410.644226,296.397583 410.194824,299.308044 
	C410.037140,300.329071 408.516815,301.352722 407.391388,301.938477 
	C406.605621,302.347443 405.433289,302.011871 404.433624,302.011871 
	C330.619293,302.011230 256.804993,302.013153 182.990677,302.009399 
	C149.346176,302.007690 118.275528,280.612549 106.356483,249.211197 
	C105.849205,247.874741 105.675400,246.411682 105.181229,244.303680 
	C107.460648,244.179092 109.208084,244.000351 110.955544,244.000061 
	C186.602722,243.987167 262.249939,243.953445 337.896881,244.087006 
	C342.191315,244.094574 345.228546,243.069077 347.485077,239.387833 
	C349.532959,236.046997 351.877228,232.887848 354.021149,228.865707 
	C352.035461,227.386307 350.120300,226.083160 348.203400,226.080688 
	C269.038025,225.978622 189.872375,225.952606 110.707100,226.096390 
	C106.055618,226.104828 104.585052,224.806091 104.875092,220.227814 
	C105.042183,217.590439 106.593361,214.010956 102.506592,212.467773 
z"/>
<path fill="#FFEA1B" opacity="1.000000" stroke="none" 
	d="
M102.513962,212.486832 
	C106.593361,214.010956 105.042183,217.590439 104.875092,220.227814 
	C104.585052,224.806091 106.055618,226.104828 110.707100,226.096390 
	C189.872375,225.952606 269.038025,225.978622 348.203400,226.080688 
	C350.120300,226.083160 352.035461,227.386307 353.988342,228.491135 
	C271.396637,228.912186 188.768097,228.925232 106.139542,228.933090 
	C105.307854,228.933167 104.476173,228.864548 103.308876,228.124390 
	C102.815742,222.459991 102.658218,217.499176 102.500702,212.538376 
	C102.500694,212.538376 102.521339,212.505890 102.513962,212.486832 
z"/>
<path fill="#F3D719" opacity="1.000000" stroke="none" 
	d="
M102.144196,212.722061 
	C102.658218,217.499176 102.815742,222.459991 102.934044,227.921844 
	C99.409767,223.472824 100.956131,218.163788 102.144196,212.722061 
z"/>
</svg>